<?xml version="1.0" encoding="UTF-8"?>
<svg xmlns="http://www.w3.org/2000/svg" width="68" height="82" viewBox="0 0 68 82" fill="none">
  <path fill-rule="evenodd" clip-rule="evenodd" d="M36.4148 24.3567L40.5831 18.683L38.9438 17.4856L34.1732 23.9801L35.8147 25.1753L36.4148 24.3567Z" fill="#C1973D"></path>
  <path fill-rule="evenodd" clip-rule="evenodd" d="M29.0381 16.6783L41.0246 34.342L42.7092 33.2077L30.1543 14.7051L28.4675 15.8394L29.0381 16.6783Z" fill="#C1973D"></path>
  <path fill-rule="evenodd" clip-rule="evenodd" d="M26.9075 36.3715L41.0065 36.234L41.1061 36.0851L41.088 34.2067L26.8871 34.3465L26.9075 36.3715Z" fill="#C1973D"></path>
  <path fill-rule="evenodd" clip-rule="evenodd" d="M25.7822 21.6303L30.5075 28.9164L25.712 35.3342L27.3445 36.5429L32.98 28.9976L26.9392 19.6797L25.2297 20.7779L25.7822 21.6303Z" fill="#C1973D"></path>
  <path fill-rule="evenodd" clip-rule="evenodd" d="M44.7469 19.4835L47.2624 23.2946L43.1846 29.3584L44.8692 30.4904L49.7009 23.3013L45.8881 17.5239L44.1899 18.6379L44.7469 19.4835Z" fill="#C1973D"></path>
  <path fill-rule="evenodd" clip-rule="evenodd" d="M20.9459 17.3593L17.0221 23.3013L21.8448 30.4791L23.518 29.3696L19.4606 23.2946L22.644 18.471L20.9459 17.3593Z" fill="#C1973D"></path>
  <path fill-rule="evenodd" clip-rule="evenodd" d="M43.2729 26.0886L47.2647 32.1343L44.6156 36.0987L46.3069 37.2217L49.7009 32.1411L44.9711 24.9746L43.2729 26.0886Z" fill="#C1973D"></path>
  <path fill-rule="evenodd" clip-rule="evenodd" d="M21.195 25.8225L17.0221 32.1411L20.6923 37.6344L22.3859 36.5136L19.4606 32.1343L23.4523 26.0886L21.7519 24.9746L21.195 25.8225Z" fill="#C1973D"></path>
  <path fill-rule="evenodd" clip-rule="evenodd" d="M34.2072 8.97957H32.5181L19.9497 27.6581L32.5181 46.3366H34.2072L46.7756 27.6581L34.2072 8.97957ZM33.3626 11.3631L44.328 27.6603C42.639 30.1702 35.7763 40.3697 33.3626 43.9575L22.3972 27.6603L33.3626 11.3631Z" fill="#C1973D"></path>
  <path fill-rule="evenodd" clip-rule="evenodd" d="M34.2072 1.34626L33.3672 0L32.5181 1.34626L29.4886 5.84732L32.5158 10.3484H34.2049L37.2344 5.84732L34.2049 1.34626H34.2072ZM33.3626 3.72758L34.7868 5.84506L33.3626 7.96254L31.9362 5.84506L33.3626 3.72758Z" fill="#C1973D"></path>
  <path fill-rule="evenodd" clip-rule="evenodd" d="M34.2072 44.8212H32.5181L29.4886 49.3222L32.5158 53.8233L33.3604 55.1064L34.2049 53.8233L37.2344 49.3222L34.2049 44.8212H34.2072ZM33.3626 47.2047L34.7868 49.3222L33.3626 51.4397L31.9362 49.3222L33.3626 47.2047Z" fill="#C1973D"></path>
  <path d="M34.3362 72.8671C33.5166 72.8671 32.7536 72.7814 32.0426 72.61C31.3339 72.4386 30.7317 72.2357 30.2403 72.0012L29.5882 72.5581H28.6622V68.481H29.4547C29.4547 68.481 29.509 68.5352 29.5339 68.5645C29.5724 68.6096 29.6222 68.6569 29.6675 68.7043C29.7739 68.8148 29.8667 68.9117 29.8667 68.9117C29.8667 68.9117 29.9483 68.9817 29.9415 68.9974C29.8192 69.2996 29.8849 69.5995 30.0139 69.8002C30.3083 70.2648 30.5845 70.5083 31.0373 70.8669C31.4222 71.2232 31.9747 71.5073 32.4502 71.7305C32.9256 71.9538 33.4826 72.0643 34.1189 72.0643C34.977 72.0643 35.6336 71.8884 36.091 71.5344C36.5483 71.1826 36.777 70.7383 36.777 70.2016C36.777 69.7619 36.5823 69.3921 36.1951 69.0922C35.8079 68.7922 35.2079 68.5329 34.3928 68.3142C33.863 68.1698 33.3762 68.0368 32.9324 67.915C32.4887 67.7933 32.0698 67.667 31.6803 67.5407C30.7792 67.2385 30.109 66.8055 29.6698 66.244C29.2328 65.6825 29.0131 65.0534 29.0131 64.3566C29.0131 63.9168 29.1264 63.4929 29.3528 63.087C29.5792 62.6811 29.9098 62.3158 30.3445 61.9933C30.7611 61.6911 31.2932 61.4453 31.943 61.2536C32.5928 61.062 33.2992 60.9672 34.06 60.9672C34.8208 60.9672 35.5 61.0552 36.1498 61.2288C36.7997 61.4025 37.3091 61.5784 37.6827 61.7543L38.26 61.2784H39.0819L39.1567 65.1255H38.3438C38.1559 64.7106 37.9317 64.2867 37.6782 63.8537C37.4223 63.4207 37.1529 63.0622 36.8698 62.7735C36.5619 62.4646 36.2042 62.2188 35.8011 62.0361C35.3981 61.8535 34.9249 61.761 34.3815 61.761C33.7 61.761 33.1453 61.9234 32.7128 62.2458C32.2804 62.5683 32.0653 62.9697 32.0653 63.4478C32.0653 63.8988 32.2532 64.2686 32.6268 64.555C33.0026 64.8414 33.5868 65.094 34.3815 65.3104C34.8479 65.4435 35.3234 65.5765 35.8102 65.7073C36.2947 65.8404 36.7272 65.9667 37.1053 66.0884C38.02 66.3861 38.7151 66.7965 39.1906 67.3174C39.6661 67.8406 39.9038 68.4878 39.9038 69.2635C39.9038 69.7506 39.768 70.2242 39.4963 70.6797C39.2246 71.1352 38.8601 71.5163 38.4004 71.8185C37.8955 72.1522 37.3136 72.4093 36.6502 72.5897C35.9891 72.7701 35.217 72.8603 34.334 72.8603L34.3362 72.8671Z" fill="#C1973D"></path>
  <path d="M68 62.2075C67.7736 62.2278 67.5653 62.2639 67.3773 62.3112C67.1894 62.3586 67.0083 62.424 66.8385 62.5097C66.5668 62.636 66.3268 62.8006 66.1162 62.999C65.9056 63.1975 65.6996 63.4185 65.4981 63.662C65.0883 64.1649 64.6603 64.7129 64.2098 65.3037C63.7592 65.8945 63.2701 66.5462 62.7426 67.2543C62.3962 67.7053 62.1833 68.0503 62.1041 68.2916C62.0248 68.5329 61.9863 68.9501 61.9863 69.5432V71.1397C61.9863 71.3314 62.0294 71.4983 62.1131 71.6403C62.1992 71.7847 62.3599 71.8997 62.5999 71.9899C62.7064 72.026 62.9328 72.0756 63.2815 72.1365C63.6279 72.1973 63.8837 72.2334 64.0467 72.2447V72.8648H56.8376V72.2447C57.0142 72.2334 56.9984 72.2131 57.3289 72.1815C57.6595 72.15 57.8905 72.1139 58.024 72.0711C58.2572 71.9854 58.4157 71.8726 58.5018 71.7328C58.5878 71.593 58.6286 71.4216 58.6286 71.2209V69.2342C58.6286 69.0583 58.6263 68.905 58.6195 68.7719C58.6127 68.6389 58.5923 68.5284 58.5539 68.4382C58.5086 68.3367 58.4339 68.2082 58.3274 68.0526C58.221 67.897 58.0806 67.694 57.9108 67.4437C57.4263 66.7289 56.9553 66.0501 56.5025 65.4097C56.0474 64.7692 55.6172 64.1671 55.2074 63.6056C54.9923 63.3147 54.7772 63.0802 54.5599 62.9021C54.3425 62.7239 54.1206 62.5796 53.8942 62.4691C53.7244 62.3902 53.5183 62.3293 53.2738 62.2864C53.0315 62.2436 52.8119 62.2165 52.6172 62.2075V61.5874H60.3041V62.2075C59.5999 62.2233 59.1267 62.2639 58.8799 62.3315C58.6354 62.3969 58.5108 62.4894 58.5108 62.6067C58.5108 62.6653 58.5561 62.7803 58.649 62.9562C58.7395 63.1321 58.9025 63.4004 59.1357 63.7657C59.3508 64.1108 59.6633 64.5843 60.0754 65.1864C60.4875 65.7908 60.9833 66.4966 61.5652 67.3062C62.7607 65.7118 63.5826 64.6001 64.0286 63.9664C64.4747 63.3328 64.6988 62.9472 64.6988 62.8028C64.6988 62.6224 64.5675 62.4849 64.3049 62.3902C64.0422 62.2955 63.6166 62.2346 63.0279 62.2075V61.5874H68.0023V62.2075H68Z" fill="#C1973D"></path>
  <path fill-rule="evenodd" clip-rule="evenodd" d="M6.16988 77.977C6.63404 77.977 7.01215 78.3536 7.01215 78.8159C7.01215 79.2782 6.63404 79.6548 6.16988 79.6548C5.70572 79.6548 5.32761 79.2782 5.32761 78.8159C5.32761 78.3536 5.70572 77.977 6.16988 77.977Z" fill="#C1973D"></path>
  <path fill-rule="evenodd" clip-rule="evenodd" d="M46.7484 77.977C47.2126 77.977 47.5907 78.3536 47.5907 78.8159C47.5907 79.2782 47.2126 79.6548 46.7484 79.6548C46.2843 79.6548 45.9062 79.2782 45.9062 78.8159C45.9062 78.3536 46.2843 77.977 46.7484 77.977Z" fill="#C1973D"></path>
  <path fill-rule="evenodd" clip-rule="evenodd" d="M34.1823 77.977C34.6464 77.977 35.0245 78.3536 35.0245 78.8159C35.0245 79.2782 34.6464 79.6548 34.1823 79.6548C33.7181 79.6548 33.34 79.2782 33.34 78.8159C33.34 78.3536 33.7181 77.977 34.1823 77.977Z" fill="#C1973D"></path>
  <path fill-rule="evenodd" clip-rule="evenodd" d="M21.1451 75.7242L18.0862 81.4092L18.8447 81.8128L21.9014 76.1279L21.1451 75.7242Z" fill="#C1973D"></path>
  <path fill-rule="evenodd" clip-rule="evenodd" d="M34.1823 75.8212C32.5226 75.8212 31.1754 77.1629 31.1754 78.8159C31.1754 80.4688 32.5226 81.8106 34.1823 81.8106C35.8419 81.8106 37.1891 80.4688 37.1891 78.8159C37.1891 77.1629 35.8419 75.8212 34.1823 75.8212ZM34.1823 76.6759C35.3664 76.6759 36.3287 77.6342 36.3287 78.8136C36.3287 79.993 35.3664 80.9514 34.1823 80.9514C32.9981 80.9514 32.0358 79.993 32.0358 78.8136C32.0358 77.6342 32.9981 76.6759 34.1823 76.6759Z" fill="#C1973D"></path>
  <path fill-rule="evenodd" clip-rule="evenodd" d="M60.2588 75.6295L57.4897 78.3874L57.7954 79.1203H59.4844L57.1999 81.3957L57.8067 82L60.8271 78.994L60.5214 78.2634H58.8324L60.8678 76.2361L60.2588 75.6295Z" fill="#C1973D"></path>
  <path d="M44.3665 68.3051L43.9794 69.0922C43.8729 69.3086 43.7552 69.5635 43.6261 69.8544C43.4971 70.1453 43.3861 70.4046 43.2933 70.6323C43.1733 70.93 43.1031 71.1442 43.0827 71.2773C43.0601 71.4103 43.0488 71.5028 43.0488 71.5547C43.0488 71.7238 43.2005 71.8681 43.5061 71.9876C43.8118 72.1071 44.3213 72.1928 45.0322 72.247V72.8671L41.4073 72.8085C41.4073 72.8085 46.0669 63.2313 46.9568 61.4295H48.4851C49.7213 63.9845 50.6881 66.0028 51.3877 67.4866C52.0874 68.9704 52.6829 70.1994 53.1742 71.1736C53.2557 71.3337 53.3598 71.478 53.4866 71.6065C53.6134 71.7373 53.7923 71.8591 54.0255 71.9764C54.2021 72.062 54.4059 72.1252 54.6414 72.168C54.8746 72.2109 54.7863 72.2357 54.9742 72.247V72.8671H50.4436L48.8904 69.6627L48.0798 68.0007L46.282 64.228L44.3688 68.3051H44.3665Z" fill="#C1973D"></path>
  <path fill-rule="evenodd" clip-rule="evenodd" d="M41.7084 68.0142L47.6156 69.7145L47.8715 68.8373L42.0933 67.1754L41.7084 68.0142Z" fill="#C1973D"></path>
  <path fill-rule="evenodd" clip-rule="evenodd" d="M0.384903 68.0706L6.09289 69.7145L6.34874 68.8373L0.808304 67.243L0.384903 68.0706Z" fill="#C1973D"></path>
  <path d="M4.87251 64.228C4.87251 64.228 2.34795 69.5635 2.21889 69.8544C2.08983 70.1453 1.97889 70.4046 1.88606 70.6323C1.76606 70.93 1.69587 71.1442 1.67549 71.2773C1.65285 71.4103 1.64153 71.5028 1.64153 71.5547C1.64153 71.7238 1.79323 71.8681 2.09889 71.9876C2.40456 72.1071 2.91399 72.1928 3.62495 72.247V72.8671L0 72.8085C0 72.8085 4.65967 63.2313 5.5495 61.4295H7.07781C8.31405 63.9845 9.28086 66.0028 9.98049 67.4866C10.6801 68.9704 11.2756 70.1994 11.7669 71.1736C11.8484 71.3337 11.9526 71.478 12.0794 71.6065C12.2062 71.7373 12.385 71.8591 12.6183 71.9764C12.7949 72.062 12.9986 72.1252 13.2318 72.168C13.4651 72.2109 13.216 72.2357 13.4062 72.247V72.8671H9.03633L4.87477 64.228H4.87251Z" fill="#C1973D"></path>
  <path d="M27.4124 61.9798C27.2539 61.9955 27.0297 62.0249 26.7377 62.0677C26.4456 62.1105 26.1807 62.2165 25.9429 62.3834C25.7346 62.5277 25.5875 62.778 25.4992 63.1298C25.4109 63.4816 25.3678 64.0003 25.3678 64.6835V72.8671H23.8644L16.3949 64.0138V69.3898C16.3949 70.0573 16.4402 70.5647 16.5353 70.912C16.6281 71.2592 16.7798 71.5817 16.9881 71.7418C17.1398 71.8591 17.3821 71.9651 17.7149 72.0575C18.0477 72.15 18.3127 72.2109 18.5096 72.2424V72.8716H13.7775V72.2424C13.9971 72.2266 13.8273 72.1883 14.1126 72.1252C14.3979 72.062 14.6356 71.9673 14.8258 71.8388C15.0455 71.6832 15.1972 71.3788 15.2787 71.0653C15.3602 70.7496 15.4009 70.2219 15.4009 69.48V64.0566C15.4009 63.7883 15.3579 63.5335 15.2696 63.2944C15.1813 63.0554 15.0455 62.8479 14.8598 62.6766C14.6628 62.4939 14.4364 62.3496 14.1805 62.2458C13.9247 62.1399 13.6326 62.0587 13.3066 62V61.3551H17.8213L24.3784 69.1012V64.7692C24.3784 64.0814 24.3308 63.5696 24.2335 63.2313C24.1384 62.8953 23.9844 62.6472 23.7784 62.4849C23.6154 62.3609 23.3731 62.2549 23.0516 62.1669C22.7301 62.079 22.4719 62.0181 22.275 61.9865V61.3574H27.4214V61.9865L27.4124 61.9798Z" fill="#C1973D"></path>
</svg>
