<?xml version="1.0" encoding="UTF-8"?><svg id="Calque_2" xmlns="http://www.w3.org/2000/svg" xmlns:xlink="http://www.w3.org/1999/xlink" viewBox="0 0 1000 212.6499"><defs><linearGradient id="Dégradé_sans_nom_3" x1="235.2349" y1="66.642" x2="983.3088" y2="229.606" gradientUnits="userSpaceOnUse"><stop offset="0" stop-color="#b6865d"/><stop offset=".5022" stop-color="#ddd1b5"/><stop offset="1" stop-color="#ad8768"/></linearGradient><linearGradient id="Dégradé_sans_nom_3-2" x1="241.5408" y1="37.6954" x2="989.6146" y2="200.6593" xlink:href="#Dégradé_sans_nom_3"/><linearGradient id="Dégradé_sans_nom_3-3" x1="244.1215" y1="25.8489" x2="992.1953" y2="188.8128" xlink:href="#Dégradé_sans_nom_3"/><linearGradient id="Dégradé_sans_nom_3-4" x1="248.574" y1="5.41" x2="996.6478" y2="168.3739" xlink:href="#Dégradé_sans_nom_3"/><linearGradient id="Dégradé_sans_nom_3-5" x1="252.5515" y1="-12.8484" x2="1000.6253" y2="150.1155" xlink:href="#Dégradé_sans_nom_3"/><linearGradient id="Dégradé_sans_nom_3-6" x1="257.7516" y1="-36.7189" x2="1005.8254" y2="126.245" xlink:href="#Dégradé_sans_nom_3"/><linearGradient id="Dégradé_sans_nom_3-7" x1="267.0854" y1="-79.5649" x2="1015.1592" y2="83.399" xlink:href="#Dégradé_sans_nom_3"/><linearGradient id="Dégradé_sans_nom_3-8" x1="263.5491" y1="-63.332" x2="1011.6229" y2="99.632" xlink:href="#Dégradé_sans_nom_3"/><linearGradient id="Dégradé_sans_nom_3-9" x1="243.8979" y1="16.7143" x2="991.9717" y2="179.6782" xlink:href="#Dégradé_sans_nom_3"/><linearGradient id="Dégradé_sans_nom_3-10" x1="215.9813" y1="144.8632" x2="964.0551" y2="307.8271" xlink:href="#Dégradé_sans_nom_3"/><linearGradient id="Dégradé_sans_nom_3-11" x1="220.6834" y1="123.2788" x2="968.7572" y2="286.2427" xlink:href="#Dégradé_sans_nom_3"/><linearGradient id="Dégradé_sans_nom_3-12" x1="222.2501" y1="116.0867" x2="970.324" y2="279.0506" xlink:href="#Dégradé_sans_nom_3"/><linearGradient id="Dégradé_sans_nom_3-13" x1="223.3236" y1="111.1589" x2="971.3974" y2="274.1228" xlink:href="#Dégradé_sans_nom_3"/><linearGradient id="Dégradé_sans_nom_3-14" x1="225.146" y1="102.7936" x2="973.2198" y2="265.7575" xlink:href="#Dégradé_sans_nom_3"/><linearGradient id="Dégradé_sans_nom_3-15" x1="226.5632" y1="96.2877" x2="974.6371" y2="259.2516" xlink:href="#Dégradé_sans_nom_3"/><linearGradient id="Dégradé_sans_nom_3-16" x1="227.8997" y1="90.1527" x2="975.9735" y2="253.1166" xlink:href="#Dégradé_sans_nom_3"/><linearGradient id="Dégradé_sans_nom_3-17" x1="229.7157" y1="81.8164" x2="977.7896" y2="244.7803" xlink:href="#Dégradé_sans_nom_3"/><linearGradient id="Dégradé_sans_nom_3-18" x1="231.9057" y1="71.7636" x2="979.9795" y2="234.7276" xlink:href="#Dégradé_sans_nom_3"/><linearGradient id="Dégradé_sans_nom_3-19" x1="233.2654" y1="65.522" x2="981.3392" y2="228.486" xlink:href="#Dégradé_sans_nom_3"/><linearGradient id="Dégradé_sans_nom_3-20" x1="234.6542" y1="59.1466" x2="982.728" y2="222.1106" xlink:href="#Dégradé_sans_nom_3"/><linearGradient id="Dégradé_sans_nom_3-21" x1="236.1102" y1="52.4632" x2="984.184" y2="215.4271" xlink:href="#Dégradé_sans_nom_3"/><linearGradient id="Dégradé_sans_nom_3-22" x1="237.5446" y1="45.8784" x2="985.6184" y2="208.8424" xlink:href="#Dégradé_sans_nom_3"/><linearGradient id="Dégradé_sans_nom_3-23" x1="238.6102" y1="40.987" x2="986.684" y2="203.951" xlink:href="#Dégradé_sans_nom_3"/><linearGradient id="Dégradé_sans_nom_3-24" x1="106.3249" y1="-.339" x2="106.325" y2="208.4755" xlink:href="#Dégradé_sans_nom_3"/><linearGradient id="Dégradé_sans_nom_3-25" x1="69.7342" y1="-.339" x2="69.7342" y2="208.4755" xlink:href="#Dégradé_sans_nom_3"/><linearGradient id="Dégradé_sans_nom_3-26" x1="103.5067" y1="-.339" x2="103.5067" y2="208.4755" xlink:href="#Dégradé_sans_nom_3"/><linearGradient id="Dégradé_sans_nom_3-27" x1="107.6645" y1="-.339" x2="107.6645" y2="208.4755" xlink:href="#Dégradé_sans_nom_3"/></defs><g id="Components"><g id="_x34_07c071b-0137-46c5-a9ea-35b3ac3f702d_x40_1"><path d="M328.8477,117.7382h-33.3496v-1.7928h7.4034c.5434,0,1.0301-.252,1.3354-.6915.2948-.4241.3612-.944.1818-1.4259l-10.4147-28.0217h-27.3086c-3.0522,8.8283-4.5993,15.7051-4.5993,20.4438,0,8.0463,4.0737,9.6953,10.1902,9.6953h1.2508v1.7928h-30.3151v-1.7928h.6189c7.5385,0,11.4285-3.423,18.2461-22.6583l23.2522-64.7711h1.4475l31.3967,83.0162c.994,2.6396,3.5884,4.4132,6.4555,4.4132h4.2088v1.7928ZM267.2946,84.0135h26.027l-13.3131-35.3643-12.7139,35.3643Z" style="fill:url(#Dégradé_sans_nom_3);"/><path d="M406.8786,117.7382h-1.5345l-.112-.3366-21.774-64.8932-21.0161,65.2298h-1.5355l-.1125-.3371-28.4877-85.2735c-.3607-1.0844-1.3792-1.813-2.5343-1.813h-7.0571v-1.7985h33.6655v1.7985h-9.7843c-.1842,0-.3511.0846-.4578.2323-.1034.1433-.1313.3217-.076.4891l21.5133,64.7109,14.9755-46.1345-5.8664-17.4901c-.3626-1.0811-1.3806-1.8077-2.5329-1.8077h-6.9359v-1.7985h33.54v1.7985h-9.7833c-.1847,0-.3515.0846-.4583.2328-.1034.1433-.1308.3217-.075.4891l21.6379,64.8417,11.2957-33.5591c2.668-8.2911,4.0212-16.008,4.0212-20.9127,0-7.4635-3.0436-11.0918-9.3053-11.0918h-1.3148v-1.7985h30.695v1.7985h-.8084c-7.6198,0-12.8226,5.8664-21.7821,33.3736l-17.9999,54.05Z" style="fill:url(#Dégradé_sans_nom_3-2);"/><path d="M524.9922,117.7382h-33.3491v-1.7928h7.4039c.5434,0,1.0301-.252,1.3354-.6915.2953-.4241.3616-.944.1823-1.4259l-10.4147-28.0217h-27.31c-3.0522,8.8321-4.5993,15.7089-4.5993,20.4438,0,8.0463,4.0737,9.6953,10.1902,9.6953h1.2508v1.7928h-30.3151v-1.7928h.6189c7.539,0,11.4294-3.423,18.2476-22.6583l23.2522-64.7711h1.4461l31.3976,83.0162c.994,2.6396,3.5884,4.4132,6.456,4.4132h4.2073v1.7928ZM463.44,84.0135h26.027l-13.3131-35.3643-12.7139,35.3643Z" style="fill:url(#Dégradé_sans_nom_3-3);"/><path d="M577.7353,117.7382h-39.178v-1.8077h6.378c2.7614,0,5-2.2386,5-5V35.3227c0-2.75-2.25-5-5-5h-6.378v-1.8067h34.8793c20.1115,0,32.6052,8.1416,32.6052,21.2474,0,6.6666-3.2167,17.351-23.6273,20.1358,17.7888,1.8765,27.8621,10.4975,27.8621,24.1226,0,14.8505-12.1647,23.7163-32.5412,23.7163ZM563.3729,115.9305h12.2768c9.9151,0,20.0514-2.6329,20.0514-22.1606,0-8.4137-1.7654-19.8783-17.0314-22.2948-2.743-.4367-4.2583-.4367-9.2784-.4367h-6.0184v44.892ZM563.3729,69.2308h4.1857c4.8373,0,9.8396-.9849,14.248-2.5391,7.0639-2.491,10.3541-6.9382,10.3541-16.8658,0-17.1862-9.7203-19.5032-19.2291-19.5032h-9.5587v38.908Z" style="fill:url(#Dégradé_sans_nom_3-4);"/><path d="M694.7187,117.7382c-10.0959,0-13.0457-9.6846-15.2165-25.5448-1.7559-12.8291-3.2181-18.6826-28.8753-19.467v43.2041h11.378v1.8077h-36.1941v-1.8077h11.3785V30.3228h-11.3785v-1.8067h36.3975c19.37,0,31.1294,7.9621,31.1294,22.1605,0,15.3675-14.4486,19.8407-26.0598,21.3545,20.9213,2.2934,25.434,17.3613,26.6016,28.317.1483,1.3915.3347,2.6771.4718,3.8688.7242,6.3074,1.0878,9.4731,4.8474,9.9338,1.5172.1851,2.9811-.2674,4.2309-1.3109,1.9423-1.6206,3.1263-4.4843,3.334-8.0627l.0289-.5011,1.8216.1399-.0476.4987c-.8603,9.1081-4.8724,12.8235-13.8478,12.8235ZM650.6269,70.9173c2.7916.076,5.0951.113,7.0297.113,4.9801,0,9.6602-.6959,12.5191-1.8615,5.8366-2.4006,8.7965-7.2334,8.7965-17.0009,0-14.9039-6.6729-21.8451-21.0002-21.8451h-7.3452v40.5945Z" style="fill:url(#Dégradé_sans_nom_3-5);"/><path d="M761.9935,117.7382c-11.7168,0-22.3487-5.0738-29.9373-14.2868-6.8433-8.3086-10.7684-19.3687-10.7684-30.3445s3.9254-21.996,10.7687-30.3046c7.5886-9.2125,18.2205-14.2863,29.9373-14.2863s22.3348,5.0738,29.9067,14.2868c6.8241,8.3029,10.7374,19.3226,10.7374,30.3041s-3.9136,22.0412-10.7377,30.344c-7.5719,9.2135-18.1932,14.2873-29.9067,14.2873ZM761.9939,30.275c-23.0945,0-26.5433,26.8202-26.5433,42.8319s3.4485,42.8723,26.543,42.8723c23.0414,0,26.4817-26.8611,26.4817-42.8723s-3.44-42.8319-26.4813-42.8319Z" style="fill:url(#Dégradé_sans_nom_3-6);"/><path d="M971.9727,117.7382c-6.563,0-12.1455-1.8384-17.4339-5.0394-2.0326-1.2304-4.8683-1.581-7.2709-.7121-2.2357.8071-3.9004,2.5209-4.5683,4.7016-.0662.2156-.1241.4352-.1728.6581l-.0857.3918h-1.5596v-33.2425h1.7976l.0248.5111c.8708,17.9304,12.1848,30.9444,28.7732,30.9444,12.0819,0,20.5199-7.3418,20.5199-17.8544,0-10.6718-8.1339-14.2812-26.5335-21.6717-15.5423-6.2233-24.0086-10.7186-24.2408-23.6942-.2229-12.4553,10.2643-23.7915,22.9241-24.197,6.5366-.2093,12.3895,1.3698,17.6977,4.5858,1.7551,1.0634,4.1034,1.561,6.2525,1.0285,2.0536-.5082,3.7271-1.7601,4.7119-3.5246.3169-.5681.5491-1.1575.6893-1.7519l.0954-.3646h1.4978l.0043,31.9609h-1.7411l-.0151-.4824c-.6255-19.5114-13.8984-29.7101-27.6898-29.7101-10.5827,0-17.4207,5.6245-17.4207,14.3288,0,9.3113,7.7639,13.144,22.6427,19.6584,18.0599,7.9211,29.1285,12.1133,29.1285,27.5134,0,15.2858-11.5251,25.962-28.0273,25.962Z" style="fill:url(#Dégradé_sans_nom_3-7);"/><path d="M892.6424,117.7382h-1.5345l-.112-.3366-21.7693-64.8932-21.0197,65.2298h-1.5355l-.1125-.3371-28.4841-85.2735c-.3607-1.0844-1.3792-1.813-2.5343-1.813h-7.0571v-1.7985h33.6655v1.7985h-9.7843c-.1842,0-.3511.0846-.4578.2323-.1034.1433-.1313.3217-.076.4891l21.5097,64.7109,14.9792-46.1345-5.8664-17.4901c-.3626-1.0811-1.3806-1.8077-2.5329-1.8077h-6.9359v-1.7985h33.54v1.7985h-9.7833c-.1847,0-.3515.0846-.4583.2328-.1034.1433-.1308.3217-.075.4891l21.6332,64.8417,11.3004-33.5591c2.668-8.2911,4.0212-16.008,4.0212-20.9127,0-7.4635-3.0436-11.0918-9.3053-11.0918h-1.3148v-1.7985h30.695v1.7985h-.8084c-7.6198,0-12.8226,5.8664-21.7821,33.3736l-18.0046,54.05Z" style="fill:url(#Dégradé_sans_nom_3-8);"/><rect x="859.3791" y="165.1451" width="140.6034" height="1.9268" style="fill:url(#Dégradé_sans_nom_3-9);"/><rect x="243.2044" y="165.1451" width="140.6034" height="1.9268" style="fill:url(#Dégradé_sans_nom_3-10);"/><g id="beauty__x26__scholl"><path d="M413.7346,184.138c-.4205,0-.7684-.1214-1.0425-.3633-.2751-.2428-.4119-.5251-.4119-.8488v-33.0189c0-.3874.1528-.6861.4606-.8971.3069-.2101.6379-.3151.9939-.3151h7.9517c1.8096,0,3.4668.2109,4.9695.6302,1.5031.421,2.6989,1.2208,3.5882,2.4002.8884,1.1803,1.3331,2.9176,1.3331,5.2119,0,2.0369-.3801,3.7423-1.1394,5.1155-.7597,1.3749-1.7537,2.3356-2.9817,2.8849,1.0017.3883,1.8742.9212,2.6184,1.6004.743.6784,1.3249,1.5513,1.7455,2.618.4197,1.0667.6302,2.4406.6302,4.1211v.873c0,2.457-.4205,4.4121-1.2608,5.867-.8407,1.4541-1.9878,2.5052-3.4423,3.1517-1.4545.6465-3.0713.9694-4.8486.9694h-9.1638ZM415.4801,163.5316h6.3031c2.262,0,3.9274-.4683,4.9941-1.4058,1.0667-.9375,1.6-2.5534,1.6-4.8486,0-1.5195-.291-2.6826-.8725-3.4909-.582-.8075-1.3744-1.3654-2.3761-1.6727-1.0021-.3073-2.1819-.4606-3.5392-.4606h-6.1094v11.8787ZM415.4801,181.18h6.9819c2.1333,0,3.7979-.5734,4.9941-1.7209,1.1954-1.1467,1.7941-2.9649,1.7941-5.4547v-.8239c0-2.5216-.5988-4.2985-1.7941-5.3341-1.1962-1.0339-2.8608-1.5513-4.9941-1.5513h-6.9819v14.8849Z" style="fill:url(#Dégradé_sans_nom_3-11);"/><path d="M444.6684,184.138c-.356,0-.687-.1042-.9939-.3151-.3078-.2101-.4606-.5251-.4606-.9453v-32.9707c0-.3874.1528-.6861.4606-.8971.3069-.2101.6379-.3151.9939-.3151h17.261c.4197,0,.727.1541.9212.4606.1937.3073.291.6224.291.9453,0,.421-.1055.7843-.3151,1.0916-.2109.3073-.5092.4606-.8971.4606h-15.5155v13.3336h7.6121c.3878,0,.6866.1455.8971.4356.2101.291.3151.631.3151,1.0184,0,.291-.0969.582-.2906.873-.1941.291-.5019.4365-.9216.4365h-7.6121v13.43h15.5155c.3878,0,.6861.1455.8971.4365.2096.291.3151.6474.3151,1.0667,0,.3564-.0973.6879-.291.9943-.1941.3073-.5015.4606-.9212.4606h-17.261Z" style="fill:url(#Dégradé_sans_nom_3-12);"/><path d="M471.8203,184.138c-.2591,0-.5333-.056-.8243-.1696-.291-.1128-.5333-.2746-.727-.4847-.1941-.2101-.291-.4442-.291-.7034,0-.1291.0159-.2428.0482-.3392l10.1336-32.6262c.1287-.3883.3715-.6706.7275-.8488.3551-.1773.743-.2669,1.1635-.2669.4524,0,.8643.0973,1.2363.291.3715.1937.6061.4692.7034.8247l10.085,32.6262c.0319.0964.0486.1937.0486.291,0,.2591-.0973.4933-.291.7025-.1941.2109-.4365.3805-.7275.5097s-.5983.1937-.9212.1937c-.2591,0-.5015-.0646-.7275-.1937-.2264-.1291-.3719-.3401-.436-.6302l-2.2792-7.4674h-13.3818l-2.2306,7.4674c-.0969.2901-.2591.501-.4847.6302-.2264.1291-.5015.1937-.8243.1937ZM476.1355,173.0832h11.7823l-5.867-19.2444-5.9152,19.2444Z" style="fill:url(#Dégradé_sans_nom_3-13);"/><path d="M513.5665,184.1427c-1.9078,0-3.6205-.3392-5.1396-1.0184-1.5199-.6784-2.7321-1.7769-3.6364-3.2972-.9052-1.5186-1.3576-3.5392-1.3576-6.0607l.0004-23.9075c0-.3883.1614-.6792.4847-.873.3228-.1937.6947-.291,1.1153-.291.4197,0,.7916.0973,1.1153.291.3228.1937.4847.4847.4847.873l-.0004,23.9075c0,2.5543.6138,4.4293,1.8428,5.6251,1.2281,1.1958,2.9249,1.7933,5.0909,1.7933,2.1979,0,3.9106-.5975,5.1396-1.7933,1.2281-1.1958,1.8423-3.0708,1.8423-5.6251l.0004-23.9075c0-.3883.1614-.6792.4847-.873.3228-.1937.6947-.291,1.1153-.291.4197,0,.7916.0973,1.1153.291.3228.1937.4847.4847.4847.873l-.0004,23.9075c0,2.5216-.4447,4.5421-1.3331,6.0607-.8897,1.5203-2.1092,2.6189-3.661,3.2972-1.5513.6792-3.2809,1.0184-5.1878,1.0184Z" style="fill:url(#Dégradé_sans_nom_3-14);"/><path d="M543.6765,184.138c-.4205,0-.7925-.1042-1.1153-.3151-.3233-.2101-.4847-.5251-.4847-.9453v-31.1766h-8.1458c-.3878,0-.687-.1532-.8971-.4606-.2105-.3073-.3151-.6543-.3151-1.0425s.1046-.7352.3151-1.0425c.2101-.3065.5092-.4606.8971-.4606h19.443c.4197,0,.7275.1455.9212.4365.1941.291.291.6302.291,1.0184,0,.3874-.0969.7438-.291,1.0667-.1937.3228-.5015.4847-.9212.4847h-8.0972v31.1766c0,.4201-.1696.7352-.5092.9453-.3392.2109-.7029.3151-1.0908.3151Z" style="fill:url(#Dégradé_sans_nom_3-15);"/><path d="M572.8648,184.138c-.3878,0-.7516-.1042-1.0908-.3151-.3396-.2101-.5092-.5251-.5092-.9453v-12.316c0-.161-.0168-.291-.0486-.3874l-10.0364-19.2488c-.0973-.1937-.1623-.3642-.1941-.5097-.0327-.1455-.0482-.266-.0482-.3633,0-.291.0882-.5329.2664-.7275.1773-.1937.4038-.3469.6788-.4606.2742-.1128.5411-.1696.8002-.1696.2583,0,.4924.0809.7029.2428.2096.1618.3956.4046.5574.7266l8.9215,17.6975,8.9697-17.6975c.1941-.322.3956-.5647.6061-.7266.2101-.1618.4283-.2428.6547-.2428.291,0,.5652.0568.8243.1696.2583.1136.4765.2669.6547.4606.1769.1946.2664.4365.2664.7275,0,.0973-.0168.2178-.0486.3633-.0323.1455-.0809.3159-.1455.5097l-10.085,19.2488c-.065.0964-.0969.2264-.0969.3874v12.316c0,.4201-.1623.7352-.4847.9453-.3237.2109-.6956.3151-1.1153.3151Z" style="fill:url(#Dégradé_sans_nom_3-16);"/><path d="M618.0424,184.1427c-2.2761,0-4.2085-.46-5.7985-1.379-1.5899-.9191-2.8137-2.1354-3.6705-3.6473-.8576-1.5119-1.2861-3.1566-1.2861-4.9334,0-1.5899.3113-2.9922.9353-4.2085.6231-1.2155,1.4264-2.2516,2.4081-3.1093.9822-.8568,1.9872-1.5194,3.0159-1.9876-.9349-1.1217-1.8-2.3297-2.595-3.6232-.795-1.2935-1.1922-2.8295-1.1922-4.6062,0-1.7136.3894-3.1633,1.169-4.3489.7788-1.1839,1.8075-2.0806,3.086-2.6884,1.2778-.6077,2.6805-.9116,4.2081-.9116,1.7141,0,3.133.2806,4.2555.841,1.1221.5612,1.964,1.2005,2.5248,1.9179.5612.7173.8419,1.2935.8419,1.7294,0,.3744-.1403.7016-.4209.9822s-.6239.4209-1.0287.4209c-.3122,0-.6077-.1636-.8884-.4907-.2806-.3279-.616-.7173-1.0054-1.169-.3902-.4517-.9116-.8419-1.5663-1.169-.6547-.3279-1.5127-.4915-2.5721-.4915-1.6833,0-3.0084.5073-3.9744,1.5202-.9668,1.0129-1.4496,2.3612-1.4496,4.0442,0,1.0918.2105,2.0972.6314,3.0163.4209.9199.9656,1.7925,1.6364,2.6186.67.8261,1.3633,1.6447,2.081,2.4551l9.5388,10.3806c.6231-1.4969,1.0287-3.0238,1.2159-4.583.1868-1.5584.296-2.8677.3271-3.9279.0307-.4359.1403-.7547.3275-.9581.1868-.2026.5451-.3039,1.0756-.3039.4982,0,.8415.1328,1.0287.3977.1868.2649.2802.6775.2802,1.2387,0,.6243-.0627,1.4961-.1868,2.6186-.125,1.1225-.3433,2.3538-.6547,3.6938-.3122,1.3409-.8112,2.6502-1.4965,3.9279l4.3019,4.6295c.0938.093.164.2026.2105.3271.0469.1254.0702.2341.0702.3271,0,.3437-.1482.6476-.4442.9124-.2964.264-.616.3969-.9585.3969-.1565,0-.3039-.0315-.4442-.093-.1403-.0631-.2885-.1719-.4442-.3279l-3.7876-4.0674c-.9668,1.34-2.2139,2.4476-3.7407,3.3193-1.5277.8726-3.3829,1.3093-5.5643,1.3093ZM618.4164,181.3373c1.7452,0,3.1794-.3578,4.3019-1.0752,1.1221-.7173,2.0412-1.6207,2.7585-2.7124l-10.0531-10.7078c-.7178.3736-1.4575.8651-2.2213,1.4729-.7642.6077-1.4189,1.3558-1.964,2.2442-.5455.8884-.8182,2.0034-.8182,3.3434,0,1.3093.3113,2.5331.9353,3.6705.6231,1.1383,1.5351,2.0507,2.7357,2.7357,1.1993.6858,2.6419,1.0287,4.3252,1.0287Z" style="fill:url(#Dégradé_sans_nom_3-17);"/><path d="M665.7653,184.1427c-2.0436,0-3.8002-.3113-5.2684-.9338-1.4691-.6225-2.5947-1.3411-3.3766-2.155-.7828-.8147-1.1736-1.5087-1.1736-2.0836,0-.2551.0719-.5273.2156-.8147s.327-.5188.5507-.694c.2232-.1752.4469-.2636.6706-.2636.3189,0,.6468.1999.9818.5987.3355.3997.7824.8623,1.3411,1.3888.5583.5273,1.3007.9899,2.2273,1.3888.9257.3997,2.1388.5987,3.6403.5987,1.5002,0,2.7852-.2466,3.8554-.7424,1.0694-.4941,1.8837-1.2289,2.4429-2.2026.5583-.9737.8381-2.195.8381-3.6645,0-1.5325-.2874-2.7699-.8619-3.7121-.5749-.9414-1.3339-1.7077-2.2753-2.2987-.9423-.5902-1.9717-1.1013-3.0892-1.5325-1.1183-.4312-2.2439-.8623-3.3766-1.2935-1.1341-.4312-2.172-.9737-3.1134-1.6286-.9423-.654-1.7085-1.5163-2.2991-2.5862-.591-1.069-.8857-2.4348-.8857-4.0948,0-1.7561.3185-3.1925.9576-4.3108.6387-1.1175,1.461-1.9951,2.4667-2.6346,1.0061-.6378,2.0993-1.0928,3.281-1.3649,1.1808-.2704,2.3306-.4074,3.4485-.4074.8938,0,1.8118.0723,2.7541.216.9414.1437,1.8118.3436,2.6104.5987.7977.256,1.4445.5587,1.9398.91.4945.3521.7424.7509.7424,1.1974,0,.2237-.0561.4711-.1675.7424-.1123.2713-.2636.5111-.4554.7186-.1913.2075-.4473.3113-.7662.3113-.2874,0-.6867-.1514-1.1974-.455-.5111-.3036-1.2055-.6064-2.0836-.91-.8785-.3036-2.0198-.455-3.4243-.455-1.1498,0-2.2596.1675-3.329.5026-1.0703.3351-1.9398.9023-2.6104,1.7-.6706.7986-1.0056,1.916-1.0056,3.3533,0,1.2773.2947,2.3072.8861,3.0888.5902.7832,1.3569,1.4134,2.2987,1.8922.9414.4788,1.9713.9185,3.0896,1.3173,1.117.3997,2.2426.8462,3.3766,1.3411,1.1328.495,2.1712,1.1183,3.113,1.8675.9414.7509,1.7004,1.7323,2.2753,2.9459.5745,1.2136.8619,2.7784.8619,4.6935,0,2.2681-.4307,4.128-1.2931,5.5805-.8623,1.4534-2.0521,2.5309-3.5684,3.2325-1.5167.7033-3.2652,1.0537-5.2446,1.0537Z" style="fill:url(#Dégradé_sans_nom_3-18);"/><path d="M696.2616,184.1427c-1.7964,0-3.4557-.3365-4.9784-1.0103-1.5231-.673-2.7337-1.7627-3.6312-3.2708-.898-1.5065-1.3468-3.5108-1.3468-6.0122v-14.91c0-2.4689.4569-4.4562,1.3707-5.9635.9142-1.5073,2.1324-2.5979,3.6555-3.2708,1.5227-.6738,3.1987-1.0103,5.0262-1.0103,2.1162,0,3.9117.3689,5.387,1.1059,2.2652,1.1349,3.7181,2.8322,4.3586,5.1043.0635.2252.1079.4632.1354.6955.167,1.4108.0546,2.3002-.3337,2.6659-.2729.2571-.6657.3843-1.1785.3843-.5769,0-.9859-.1196-1.2263-.3604s-.3608-.5209-.3608-.842c-.0325-.5124-.1366-1.1059-.3126-1.7797-.1768-.673-.4975-1.3143-.962-1.9232-.465-.6089-1.1384-1.1136-2.0201-1.515-.8822-.4005-2.0283-.6012-3.4386-.6012-2.2452,0-3.9609.5935-5.1466,1.7789-1.1866,1.1871-1.7797,3.0308-1.7797,5.5314v14.91c0,2.5338.6012,4.3938,1.8036,5.58,1.2024,1.1862,2.9583,1.7789,5.2666,1.7789,1.4433,0,2.5808-.1998,3.4151-.6012.8335-.4005,1.4667-.8967,1.8997-1.4911.433-.5927.7289-1.2332.8899-1.9232.1601-.6892.2887-1.3228.3847-1.9002.0316-.4159.1759-.7293.433-.9377.2562-.2084.6251-.3126,1.1064-.3126.5449,0,.9535.1366,1.2263.4082.272.2733.4086.7942.4086,1.5637,0,1.4424-.401,2.7823-1.2024,4.0164-.8019,1.234-1.948,2.2289-3.4386,2.9813-1.4911.7541-3.2947,1.1307-5.4109,1.1307Z" style="fill:url(#Dégradé_sans_nom_3-19);"/><path d="M718.4677,184.138c-.4205,0-.7925-.1042-1.1153-.3151-.3233-.2101-.4847-.5251-.4847-.9453v-33.0189c0-.3883.1614-.6792.4847-.873.3228-.1937.6947-.291,1.1153-.291.3939,0,.763.1004,1.1067.3002.3118.1812.4933.5292.4933.8898v14.4706s14.0124,0,14.0124,0v-14.4967c0-.3883.1614-.6792.4847-.873.3228-.1937.6947-.291,1.1153-.291.3939,0,.763.1004,1.1067.3002.3118.1812.4933.5292.4933.8898v32.9928c0,.4201-.1696.7352-.5092.9453-.3392.2109-.7029.3151-1.0908.3151-.4205,0-.7925-.1042-1.1153-.3151-.3233-.2101-.4847-.5251-.4847-.9453v-15.7579h-14.0124v15.7579c0,.4201-.1696.7352-.5092.9453-.3392.2109-.7029.3151-1.0908.3151Z" style="fill:url(#Dégradé_sans_nom_3-20);"/><path d="M759.1963,184.1427c-1.86,0-3.5437-.3365-5.0506-1.0103-1.5073-.673-2.7016-1.7627-3.583-3.2708-.8822-1.5065-1.3228-3.5108-1.3228-6.0122v-14.91c0-2.4689.4407-4.4562,1.3228-5.9635.8813-1.5073,2.068-2.5979,3.559-3.2708,1.4911-.6738,3.182-1.0103,5.0745-1.0103s3.5906.3365,5.098,1.0103c1.5069.673,2.7093,1.7635,3.6073,3.2708.8976,1.5073,1.3468,3.4946,1.3468,5.9635v14.91c0,2.5014-.4492,4.5057-1.3468,6.0122-.898,1.5082-2.1004,2.5979-3.6073,3.2708-1.5073.6738-3.2063,1.0103-5.098,1.0103ZM759.1963,181.2084c2.1478,0,3.831-.5927,5.0501-1.7789,1.2182-1.1862,1.8276-3.0462,1.8276-5.58v-14.91c0-2.5005-.6093-4.3443-1.8276-5.5314-1.2191-1.1854-2.9023-1.7789-5.0501-1.7789s-3.8165.5935-5.0023,1.7789c-1.1866,1.1871-1.7797,3.0308-1.7797,5.5314v14.91c0,2.5338.5931,4.3938,1.7797,5.58,1.1858,1.1862,2.8536,1.7789,5.0023,1.7789Z" style="fill:url(#Dégradé_sans_nom_3-21);"/><path d="M790.8567,184.1427c-1.86,0-3.5424-.3365-5.0497-1.0103-1.5073-.673-2.7016-1.7627-3.583-3.2708-.8822-1.5065-1.3228-3.5108-1.3228-6.0122v-14.91c0-2.4689.4407-4.4562,1.3228-5.9635.8813-1.5073,2.068-2.5979,3.559-3.2708,1.4902-.6738,3.1812-1.0103,5.0736-1.0103s3.5919.3365,5.0984,1.0103c1.5082.673,2.7106,1.7635,3.6073,3.2708.8984,1.5073,1.3476,3.4946,1.3476,5.9635v14.91c0,2.5014-.4492,4.5057-1.3476,6.0122-.8967,1.5082-2.0991,2.5979-3.6073,3.2708-1.5065.6738-3.2059,1.0103-5.0984,1.0103ZM790.8567,181.2084c2.1487,0,3.8328-.5927,5.0506-1.7789s1.8276-3.0462,1.8276-5.58v-14.91c0-2.5005-.6098-4.3443-1.8276-5.5314-1.2178-1.1854-2.9019-1.7789-5.0506-1.7789s-3.8157.5935-5.001,1.7789c-1.1871,1.1871-1.7802,3.0308-1.7802,5.5314v14.91c0,2.5338.5931,4.3938,1.7802,5.58,1.1854,1.1862,2.8524,1.7789,5.001,1.7789Z" style="fill:url(#Dégradé_sans_nom_3-22);"/><path d="M814.2762,184.138c-.3564,0-.687-.1042-.9943-.3151-.3073-.2101-.4606-.5251-.4606-.9453v-33.0189c0-.4201.1618-.7189.4855-.8971.322-.1773.6939-.2669,1.1149-.2669.3874,0,.7516.0895,1.0908.2669.3392.1782.5088.4769.5088.8971v31.3212h13.8191c.3874,0,.662.1541.8239.4614s.2428.6379.2428.9935c0,.3883-.0809.7361-.2428,1.0425-.1618.3073-.4365.4606-.8239.4606h-15.5642Z" style="fill:url(#Dégradé_sans_nom_3-23);"/></g><path d="M106.3249,3.7736c56.6375,0,102.5513,45.9138,102.5513,102.5513s-45.9138,102.5513-102.5513,102.5513S3.7736,162.9625,3.7736,106.3249,49.6874,3.7736,106.3249,3.7736h0ZM106.3249,0c-14.3521,0-28.2769,2.8117-41.3876,8.3571-12.6615,5.3554-24.032,13.0213-33.7955,22.7848s-17.4294,21.1339-22.7848,33.7955C2.8117,78.048,0,91.9728,0,106.3249s2.8117,28.2769,8.3571,41.3876c5.3554,12.6615,13.0213,24.032,22.7848,33.7955,9.7635,9.7635,21.1339,17.4294,33.7955,22.7848,13.1107,5.5454,27.0355,8.3571,41.3876,8.3571s28.2769-2.8117,41.3876-8.3571c12.6615-5.3554,24.032-13.0213,33.7955-22.7848,9.7635-9.7635,17.4294-21.1339,22.7848-33.7955,5.5454-13.1107,8.3571-27.0355,8.3571-41.3876s-2.8117-28.2769-8.3571-41.3876c-5.3554-12.6615-13.0213-24.032-22.7848-33.7955-9.7635-9.7635-21.1339-17.4294-33.7955-22.7848C134.6019,2.8117,120.6771,0,106.3249,0h0Z" style="fill:url(#Dégradé_sans_nom_3-24);"/><path d="M13.8896,150.7918c5.9281-14.2844,12.5774-28.2791,19.9736-41.8955,7.3971-13.6116,15.5576-26.8522,24.737-39.3883,9.1601-12.5436,19.3641-24.3546,30.5681-35.1128,11.1941-10.7649,23.3943-20.46,36.4105-28.817-12.0998,9.6342-23.6429,19.8627-34.3342,30.9051-10.7009,11.0313-20.5264,22.8628-29.6003,35.2529-9.0697,12.3967-17.3959,25.3454-25.2294,38.6071-7.8346,13.2647-15.1861,26.8327-22.5253,40.4485Z" style="fill:url(#Dégradé_sans_nom_3-25);"/><path d="M81.4345,205.8348c2.1203-16.9953,4.7509-33.9119,7.6055-50.7889,2.8615-16.8762,5.9592-33.7135,9.3722-50.4914,3.4069-16.7786,7.1202-33.5016,11.3257-50.113,1.0647-4.1495,2.1281-8.2998,3.2779-12.4285,1.1495-4.1286,2.33-8.2493,3.5789-12.3508,1.2756-4.0936,2.5826-8.1791,4.0393-12.2145,1.465-4.0292,3.0139-8.0428,4.945-11.8695-.772,1.9972-1.4712,4.0159-2.1125,6.0535-.6495,2.0344-1.2587,4.0806-1.8365,6.1359-1.1536,4.111-2.2405,8.2396-3.2496,12.3891-1.0331,4.1427-2.022,8.297-2.9666,12.4622-.9458,4.1648-1.9046,8.3264-2.8103,12.501-3.6615,16.6892-7.073,33.4374-10.4943,50.1862l-10.1851,50.2765c-3.3978,16.7633-6.8303,33.5225-10.4894,50.2522Z" style="fill:url(#Dégradé_sans_nom_3-26);"/><path d="M13.8896,150.7918c3.4988-3.979,7.1298-7.8458,10.8716-11.6041,3.7454-3.7549,7.6012-7.4008,11.5356-10.9612,7.8728-7.1174,16.1069-13.839,24.6267-20.1875,8.5341-6.3288,17.39-12.2442,26.6104-17.5776,2.309-1.3261,4.6322-2.6308,6.9912-3.8728,2.3613-1.237,4.7413-2.4421,7.1554-3.5819,4.8264-2.2811,9.7614-4.3603,14.8361-6.1,5.0688-1.7473,10.2836-3.1576,15.6378-3.9923,5.3449-.8311,10.8683-1.0509,16.333-.1503,1.3763.2237,2.7585.5602,4.1198,1.0296,1.3582.4756,2.7059,1.0997,3.9479,1.9672,1.2428.8561,2.3756,1.9712,3.2145,3.2984.8451,1.3209,1.3902,2.8233,1.6348,4.3225.2471,1.5016.2452,3.0003.0746,4.4394-.1645,1.4431-.4832,2.8365-.8894,4.1837-.8174,2.6955-1.9751,5.2141-3.2849,7.6177-2.6353,4.8034-5.8906,9.1594-9.4414,13.2255-3.5615,4.0596-7.4348,7.835-11.6559,11.2396-2.1137,1.6988-4.3189,3.3012-6.6679,4.7389-1.1773.7155-2.3909,1.3894-3.6642,1.991-1.2777.5951-2.6058,1.1329-4.0571,1.5004-1.4437.3537-3.045.5944-4.8254.1925-.8804-.216-1.7974-.6322-2.5385-1.2844-.7552-.638-1.2841-1.459-1.6412-2.2628-.3989-.8729-.565-1.9616-.435-2.9155.1104-.9725.4568-1.8107.8508-2.5486.8159-1.4622,1.8678-2.5507,2.9468-3.5262,2.1807-1.9222,4.5678-3.3502,7.0002-4.6251,2.4375-1.2653,4.9433-2.3335,7.4842-3.2817,5.0864-1.8822,10.3189-3.2778,15.6311-4.2524,5.3125-.9665,10.7128-1.5084,16.1438-1.4845,5.4238.0328,10.9028.6228,16.2062,2.1805,2.6463.7808,5.246,1.8081,7.6923,3.1717,2.4463,1.3555,4.7475,3.0333,6.7397,5.0459,1.9999,2.0023,3.6808,4.3313,4.9573,6.8486,1.284,2.5154,2.1728,5.2043,2.7261,7.9294.2733,1.3652.4832,2.7271.5936,4.1381.1127,1.4005.1109,2.8012.037,4.1913-.15,2.782-.6473,5.5135-1.3599,8.1641-1.4411,5.3048-3.7721,10.2752-6.5822,14.8954-2.8185,4.6213-6.1168,8.9145-9.7421,12.8865-3.6241,3.9752-7.5795,7.6305-11.7769,10.9691-8.4114,6.6584-17.8127,12.0245-27.7759,15.909-9.9681,3.8703-20.5314,6.1862-31.1749,6.7521-5.3218.2671-10.6591.1121-15.9404-.4865-5.2812-.6048-10.5002-1.6548-15.6005-3.0896,5.152,1.2386,10.3923,2.0763,15.659,2.4824,5.2648.4265,10.5571.4095,15.807-.0229,10.5038-.8561,20.8293-3.4223,30.5223-7.4499,9.701-4.0114,18.787-9.473,26.8673-16.122,4.0449-3.3174,7.8416-6.9343,11.2984-10.8423,3.4581-3.904,6.5801-8.1017,9.213-12.5683,2.6151-4.4685,4.7725-9.2113,6.0702-14.1529.6397-2.4685,1.0708-4.983,1.1825-7.4946.055-1.2549.0453-2.5091-.0663-3.7485-.1074-1.2292-.3092-2.4889-.5655-3.7181-1.0198-4.9201-3.2998-9.518-6.8401-12.9764-3.5072-3.4958-8.1038-5.8183-12.9621-7.236-4.8772-1.4215-10.04-1.9776-15.1995-1.994-5.1668-.0103-10.3534.5204-15.4603,1.4632-5.1056.9491-10.1455,2.309-14.9923,4.1169-2.4192.9094-4.7929,1.9305-7.055,3.1124-2.2524,1.1817-4.4314,2.5228-6.2348,4.1039-.8873.7876-1.6804,1.6568-2.1551,2.5167-.2283.4255-.3869.8407-.4202,1.1893-.0427.3593-.0023.6297.1409.964.372.8168.8269,1.2084,1.6304,1.4228.816.1978,1.925.1095,3.0376-.1749,2.2524-.5766,4.5379-1.7375,6.7049-3.0424,2.1743-1.322,4.2699-2.8321,6.2888-4.4461,4.0365-3.2358,7.7911-6.872,11.226-10.7666,1.7156-1.9498,3.3504-3.9688,4.8723-6.0607,1.5279-2.0868,2.9484-4.2455,4.1962-6.4807,1.2436-2.2338,2.3231-4.5496,3.063-6.9217.7337-2.3607,1.1284-4.8144.7756-7.0507-.3399-2.2351-1.5228-4.1411-3.403-5.4382-1.8655-1.3154-4.2488-2.0744-6.7054-2.5062-4.9991-.8733-10.1987-.7053-15.3188.0088-5.1287.7277-10.2033,2.021-15.17,3.6589-9.9514,3.2673-19.4803,7.8497-28.7114,12.9183-9.2268,5.0997-18.1196,10.8241-26.7399,16.932-8.6304,6.0982-16.9631,12.6262-25.0174,19.4862-4.0255,3.4323-7.9704,6.9616-11.8234,10.591-3.864,3.6181-7.6236,7.3505-11.2598,11.2045Z" style="fill:url(#Dégradé_sans_nom_3-27);"/></g></g></svg>