<svg xmlns="http://www.w3.org/2000/svg" width="134.585" height="33.291" viewBox="0 0 134.585 33.291">
  <g id="Group_5602" data-name="Group 5602" transform="translate(-314.86 -254.967)">
    <path id="Path_5041" data-name="Path 5041" d="M445.378,269.594a16.7,16.7,0,0,0,2.6-3.208,7.559,7.559,0,0,0,1.3-2.7q.035-.976-2.371-1.883a13.619,13.619,0,0,0-4.137-.953c-.465-.023-1.255,2.231-2.371,6.74l-.4-.023.418-11.133c.023-.906-.86-1.395-2.7-1.464a10.433,10.433,0,0,0-3.649.488c-1.139.372-1.72.79-1.72,1.209l-.767,20.593c0,.256.163.442.511.581a10.651,10.651,0,0,0,2.348.256,28.715,28.715,0,0,0,3.486-.07c1.116-.093,1.673-.232,1.7-.465l.116-2.952.813-.883a25.128,25.128,0,0,0,1.139,3.928c.372.883.721,1.325,1.092,1.348a10.9,10.9,0,0,0,3.858-1.139c1.836-.79,2.766-1.488,2.789-2.069C449.423,275.172,448.1,273.1,445.378,269.594Zm-14.434-2.975a5.383,5.383,0,0,0-.325-1.581,7.164,7.164,0,0,0-.814-1.418,4.658,4.658,0,0,0-1.371-1.325,9.274,9.274,0,0,0-2.185-.953,15.972,15.972,0,0,0-3.254-.6,15.271,15.271,0,0,0-3.951.186,12.378,12.378,0,0,0-3.208.883q-1.15.523-1.185.906a4.814,4.814,0,0,0,.7,2.65q.8,1.5,1.325,1.534a2.2,2.2,0,0,0,.953-.325,10.255,10.255,0,0,1,1.766-.628,5.32,5.32,0,0,1,1.79-.232,2.257,2.257,0,0,1,1.069.3,1.836,1.836,0,0,1,.674,1.79l-.976-.093a16.139,16.139,0,0,0-4.277.139,8.92,8.92,0,0,0-2.3.721,5.015,5.015,0,0,0-1.766,1.464,4.446,4.446,0,0,0-.883,2.371,5.973,5.973,0,0,0,.256,2.464,4.4,4.4,0,0,0,.953,1.673,6.562,6.562,0,0,0,4.137,1.65c2.208.186,3.649-.581,4.3-2.324l.232.023.093,1.72a1.014,1.014,0,0,0,.116.418c.047.093.232.163.535.256a13.765,13.765,0,0,0,2.022.256,23.833,23.833,0,0,0,3.161.07c1.069-.046,1.6-.163,1.627-.372l.767-8.925A15.055,15.055,0,0,0,430.944,266.619Zm-8.484,7.019a.585.585,0,0,1-.256.418.907.907,0,0,1-.628.139c-.6-.047-.837-.721-.721-2.045a2.446,2.446,0,0,1,.6-1.441,1.434,1.434,0,0,1,1.3-.535Zm-10.506-5.578a15.074,15.074,0,0,0-.372-2.7,4.906,4.906,0,0,0-.558-1.511,7.175,7.175,0,0,0-1-1.278,5.02,5.02,0,0,0-1.557-1.116,10.761,10.761,0,0,0-2.3-.628,14.885,14.885,0,0,0-3.3-.116,15.657,15.657,0,0,0-3.882.744,12.818,12.818,0,0,0-3.045,1.325c-.721.465-1.046.814-1.046,1.069a4.8,4.8,0,0,0,1.069,2.51q1.011,1.36,1.534,1.325a2.278,2.278,0,0,0,.906-.465,10.948,10.948,0,0,1,1.673-.883,4.987,4.987,0,0,1,1.743-.488,2.341,2.341,0,0,1,1.092.139,1.833,1.833,0,0,1,.93,1.674l-.976.046a16.718,16.718,0,0,0-4.23.744,9.078,9.078,0,0,0-2.185,1.046,5.18,5.18,0,0,0-1.534,1.7,4.571,4.571,0,0,0-.535,2.487,5.877,5.877,0,0,0,.6,2.417,4.288,4.288,0,0,0,1.185,1.511,6.53,6.53,0,0,0,4.323,1.046c2.231-.116,3.533-1.092,3.928-2.905l.232-.023.325,1.674a1.961,1.961,0,0,0,.163.418,1.138,1.138,0,0,0,.558.186,14.938,14.938,0,0,0,2.022-.023,28.859,28.859,0,0,0,3.138-.372c1.046-.186,1.581-.4,1.557-.6Zm-7.949,5.9a.953.953,0,0,1-.6.232c-.6.023-.93-.6-1-1.906a2.425,2.425,0,0,1,.4-1.511,1.447,1.447,0,0,1,1.209-.721l.209,3.486A.6.6,0,0,1,404.006,273.964ZM393.57,263.156a3.345,3.345,0,0,0-.93-1.278c-.325-.279-.906-.628-3.138-.814a11.509,11.509,0,0,0-3.486,0,9.275,9.275,0,0,0-3.045,1.185,3.955,3.955,0,0,0-.4.256,3.67,3.67,0,0,0-1.325-1.836,5.365,5.365,0,0,0-2.7-.674,9.584,9.584,0,0,0-2.789-.07,7.043,7.043,0,0,0-2.836,1.162,2.593,2.593,0,0,0-.814-1.278c-.651-.535-.976-.209-3.207-.674a2.4,2.4,0,0,0-1.511-.023,2.633,2.633,0,0,0-.837.581,4.328,4.328,0,0,0-1.278,2.882l-.837,8.948a5.609,5.609,0,0,0,.465,3.37,3.024,3.024,0,0,0,2.162,1.185q.558-.314,1.046-.558c.232-.116.442-.232.628-.325l-.976-.07a1.794,1.794,0,0,1-.814-3.324l.837-.511,6.415-3.951a1.888,1.888,0,0,1,.93-.279,1.781,1.781,0,0,1,1.79,1.743l.07,2.952.139,5.16a12.713,12.713,0,0,0,1.3.232c1.581.232,2.348.325,2.882-.023.186-.116.372-.325.906-2.859.232-1.116.372-1.65.442-2.278.116-.837.232-1.906.349-3.184a5.072,5.072,0,0,1,.558-2.069,1.18,1.18,0,0,1,1.162-.744c1.092.093,1.581.837,1.441,2.185l-.6,6.578c-.209.976-.3,2.069.279,2.533.232.186.465.186,1.046.279,1.046.186,1.139.325,2.208.581,1.766.418,2.673.6,3.184.256.232-.163.349-.372.93-3.091.232-1.139.372-1.72.442-2.255.116-.837.232-1.906.349-3.184C394.383,266.782,394.2,264.55,393.57,263.156ZM337.6,267.223c-.325-3.835-1.743-6.74-4.207-8.716A12.747,12.747,0,0,0,324,256.02l-5.346.465c-2.766.232-4.021,1.79-3.765,4.7l1.325,15.34c.163,1.952.6,3.3,1.325,4a4.033,4.033,0,0,0,3.277.86l7.159-.6a11.4,11.4,0,0,0,3.347-.767,32.377,32.377,0,0,1-2.766-3.44c-.209-.3-.372-.558-.535-.814l-1.255,1.6a1.587,1.587,0,0,1-1.232.6,1.527,1.527,0,0,1-1.116-.465,1.543,1.543,0,0,1-.442-1.116l.116-4.788.093-3.7a1.552,1.552,0,0,1,1.557-1.534,1.5,1.5,0,0,1,.814.232c2.417,1.488,4.858,2.975,7.275,4.463a1.558,1.558,0,0,1-.721,2.882l-.628.047c.953.628,2.092,1.348,3.417,2.092a13.912,13.912,0,0,0,.814-1.673,14.349,14.349,0,0,0,.86-3.51A21.536,21.536,0,0,0,337.6,267.223Z" fill="#FFFFFF"/>
    <path id="Path_5042" data-name="Path 5042" d="M409.293,277.7a.454.454,0,0,0-.163-.349.081.081,0,0,0-.047-.023c-.023-.023-.047-.046-.07-.046a.419.419,0,0,0-.232-.047.469.469,0,0,0-.256.07c-2.44,1.488-4.858,2.975-7.275,4.463a.5.5,0,0,0,.232.93l4.114.256a.485.485,0,0,1,.372.186l2.626,3.37a.491.491,0,0,0,.4.186.516.516,0,0,0,.511-.511C409.432,283.351,409.362,280.539,409.293,277.7Zm-4.625,7.066c0-.023-.023-.023-.046-.046-.023,0-.046-.023-.07-.023H404.5a.33.33,0,0,0-.139.047,3,3,0,0,0-.511.232c-.023.023-.047.023-.093.047a1.381,1.381,0,0,1-.186.093.176.176,0,0,1-.093.046.486.486,0,0,0-.139.093c-.07.047-.163.093-.232.139-.116.07-.256.139-.4.232-.139.07-.279.163-.442.256-.139.07-.279.163-.418.232-.186.093-.372.209-.558.325s-.4.209-.6.325c-.256.139-.511.279-.79.418l-.558.279h0q-.418.209-.906.418l-.628.279h0l-.837.349c-.279.116-.581.232-.883.349-.349.139-.721.256-1.116.4-.511.163-1.023.325-1.557.488q-.8.209-1.673.418c-.418.093-.86.186-1.3.256a27.883,27.883,0,0,1-4.718.4h-.4a40.668,40.668,0,0,1-13.5-2.882c-.07-.023-.163-.07-.232-.093-.139-.046-.256-.116-.4-.163a.33.33,0,0,0-.139-.046c-.139-.047-.256-.116-.372-.163-1.116-.488-2.069-.976-2.905-1.441l-.279-.139c-.883-.488-1.6-.953-2.162-1.325l-.209-.139h0a.815.815,0,0,0-.186-.116h0a.984.984,0,0,1-.163-.116h0c-.046-.046-.116-.07-.163-.116a5.525,5.525,0,0,0-.535-.325c-.046-.023-.07-.047-.093-.047a1.135,1.135,0,0,1-.163-.07c-.023,0-.046-.023-.07-.023h-.046a.085.085,0,0,0-.07.023c-.488.581,7.554,12.6,19.268,13.434.325.023.651.046.953.046h.325c7.554,0,14.015-4.649,17.595-8.251.256-.256.488-.511.721-.744.07-.07.139-.163.209-.232.139-.163.279-.325.4-.465a9.809,9.809,0,0,0,.674-.86c.093-.139.186-.256.279-.372C404.551,285.42,404.784,284.908,404.667,284.769ZM394.6,268.011a4.513,4.513,0,0,0-2.975-1.232,2.126,2.126,0,0,0-.372-.023,3.156,3.156,0,0,0-.674.07c-.116.023-.209.046-.325.07a1.612,1.612,0,0,0-.3.116c-.093.046-.209.093-.3.139a1.937,1.937,0,0,0-.279.186,3.187,3.187,0,0,0-.511.465,5.2,5.2,0,0,0-1.3,3.254l-.93,10.041a6.71,6.71,0,0,0,.442,3.765,3.365,3.365,0,0,0,2.812,1.395c.3.023.581.046.837.046a6.527,6.527,0,0,0,1-.07,2.012,2.012,0,0,0,.535-.139c.023,0,.047-.023.093-.023a2.4,2.4,0,0,0,.232-.093c.139-.07.256-.139.372-.209.07-.046.139-.116.209-.163a4.992,4.992,0,0,0,1.232-3.324l.976-10.6C395.533,269.917,395.277,268.708,394.6,268.011Zm-12.574,13.341-.767-10.622a4.633,4.633,0,0,0-1.348-3.463,4.174,4.174,0,0,0-2.6-.767,4.294,4.294,0,0,0-.535.023,3.177,3.177,0,0,0-2.58,1.464,5.28,5.28,0,0,0-.767,3.417l.721,10.041a6.613,6.613,0,0,0,1.046,3.649,3,3,0,0,0,2.487.93,3.765,3.765,0,0,0,.511-.023,4.386,4.386,0,0,0,3.138-1.185C381.936,284.141,382.145,282.979,382.029,281.352Zm-15.41.349-2,.139-2.115.139a.485.485,0,0,0-.372.186l-1.092,1.395-1.534,1.976a.491.491,0,0,1-.4.186h-.093c-.023,0-.07-.023-.093-.023-.023-.023-.07-.023-.093-.046s-.046-.046-.07-.046a.548.548,0,0,1-.163-.372c.07-2.836.139-5.648.209-8.484a.5.5,0,0,1,.511-.488.469.469,0,0,1,.256.07c2.44,1.488,4.858,2.975,7.275,4.463A.489.489,0,0,1,366.619,281.7Z" transform="translate(-33.573 -8.853)" fill="#00afe9"/>
  </g>
</svg>
