<svg xmlns="http://www.w3.org/2000/svg" width="18" height="13.799" viewBox="0 0 18 13.799">
  <path id="Path_188" data-name="Path 188" d="M15.2,47.5a.9.9,0,1,1-.9-.9A.9.9,0,0,1,15.2,47.5Zm4.5-.9a.9.9,0,1,0,.9.9A.9.9,0,0,0,19.7,46.6Zm5.583,4.867L20.257,53.7a1.213,1.213,0,0,1-1.628-.682l-.608-1.65q-.5.034-1.022.035t-1.022-.035l-.608,1.65a1.213,1.213,0,0,1-1.628.682L8.716,51.467a1.2,1.2,0,0,1-.679-1.388l2.213-8.728a1.205,1.205,0,0,1,.975-.889l2.7-.445a1.216,1.216,0,0,1,1.369.891l.244.963q.715-.07,1.456-.07t1.455.07l.244-.963a1.216,1.216,0,0,1,1.369-.891l2.706.445a1.205,1.205,0,0,1,.975.889l2.215,8.728a1.2,1.2,0,0,1-.681,1.389Zm-.484-1.1-2.215-8.72h-.006l-2.7-.45a.013.013,0,0,0-.013,0l-.212.835c.375.07.75.154,1.112.256a.6.6,0,0,1-.162,1.181.607.607,0,0,1-.162-.022,13.346,13.346,0,0,0-6.875,0,.6.6,0,1,1-.324-1.155c.361-.1.733-.186,1.111-.256l-.212-.838h-.009l-2.707.445h-.007L9.2,50.375,14.224,52.6a.017.017,0,0,0,.016,0l.508-1.371a12.989,12.989,0,0,1-1.51-.324.6.6,0,0,1,.322-1.155,13.357,13.357,0,0,0,6.875,0,.6.6,0,1,1,.324,1.156,12.989,12.989,0,0,1-1.512.323l.506,1.371a.017.017,0,0,0,.016,0Z" transform="translate(-8 -40.001)" fill="#ffffff"/>
</svg>