<svg xmlns="http://www.w3.org/2000/svg" width="20.051" height="23.39" viewBox="0 0 20.051 23.39">
  <path id="Path_183" data-name="Path 183" d="M50.673,18.432l-13.6-2.4a1.671,1.671,0,0,0-1.935,1.355L32.031,35.033a1.671,1.671,0,0,0,1.357,1.935l13.6,2.4h0a1.671,1.671,0,0,0,1.936-1.357l3.107-17.647A1.671,1.671,0,0,0,50.673,18.432Zm-3.4,19.292h0l-13.6-2.4,3.107-17.647,13.6,2.4Zm-9.285-17.29a.835.835,0,0,1,.968-.677l8.667,1.53a.835.835,0,0,1-.145,1.658.873.873,0,0,1-.146-.013L38.669,21.4A.835.835,0,0,1,37.993,20.434Zm-.578,3.291a.835.835,0,0,1,.968-.678l8.667,1.531a.835.835,0,0,1-.146,1.659.788.788,0,0,1-.147-.014l-8.667-1.53A.835.835,0,0,1,37.414,23.726Zm-.58,3.29a.835.835,0,0,1,.968-.674l4.331.761a.835.835,0,0,1-.144,1.658.864.864,0,0,1-.146-.013l-4.333-.765A.835.835,0,0,1,36.835,27.016Z" transform="translate(-32.006 -16.005)" fill="#fff"/>
</svg>
