<svg xmlns="http://www.w3.org/2000/svg" width="22.496" height="22.496" viewBox="0 0 22.496 22.496">
  <path id="Path_180" data-name="Path 180" d="M21.695,29.382a6.226,6.226,0,0,0-.56-4.966A.833.833,0,0,0,20.413,24a6.223,6.223,0,0,0-5,2.5h-2.5a6.223,6.223,0,0,0-5-2.5.833.833,0,0,0-.722.417,6.226,6.226,0,0,0-.56,4.966,6.055,6.055,0,0,0-.8,2.949v.833a5.838,5.838,0,0,0,5.045,5.777A4.145,4.145,0,0,0,10,41.5v.833H7.5A2.5,2.5,0,0,1,5,39.83,4.166,4.166,0,0,0,.833,35.664a.833.833,0,0,0,0,1.666,2.5,2.5,0,0,1,2.5,2.5A4.166,4.166,0,0,0,7.5,44H10v1.666a.833.833,0,1,0,1.666,0V41.5a2.5,2.5,0,0,1,5,0v4.166a.833.833,0,1,0,1.666,0V41.5a4.145,4.145,0,0,0-.879-2.555A5.838,5.838,0,0,0,22.5,33.165v-.833A6.055,6.055,0,0,0,21.695,29.382Zm-.865,3.783a4.166,4.166,0,0,1-4.166,4.166h-5A4.166,4.166,0,0,1,7.5,33.165v-.833a4.347,4.347,0,0,1,.719-2.341.833.833,0,0,0,.115-.8,4.563,4.563,0,0,1,.082-3.5,4.57,4.57,0,0,1,3.366,2.089.833.833,0,0,0,.7.384h3.369a.833.833,0,0,0,.7-.384,4.569,4.569,0,0,1,3.366-2.089,4.563,4.563,0,0,1,.08,3.5.843.843,0,0,0,.1.8,4.345,4.345,0,0,1,.729,2.345Z" transform="translate(0 -24)" fill="#fff"/>
</svg>
