<svg xmlns="http://www.w3.org/2000/svg" width="172.551" height="59.607" viewBox="0 0 172.551 59.607"><defs><style>.a{fill:#10b3ed;}.b{fill:#f17711;}</style></defs><g transform="translate(0 380.934)"><g transform="translate(0 -380.934)"><path class="a" d="M59.869-326.537a6.488,6.488,0,0,0-1.851-2.023A6.96,6.96,0,0,0,55.49-329.7a6.32,6.32,0,0,0-2.737-.034,6.85,6.85,0,0,0-2.553,1.086,6.856,6.856,0,0,0-1.637,1.66,7.208,7.208,0,0,0-1,2.078l12.832-.558A7.349,7.349,0,0,0,59.869-326.537Zm0,0a6.488,6.488,0,0,0-1.851-2.023A6.96,6.96,0,0,0,55.49-329.7a6.32,6.32,0,0,0-2.737-.034,6.85,6.85,0,0,0-2.553,1.086,6.856,6.856,0,0,0-1.637,1.66,7.208,7.208,0,0,0-1,2.078l12.832-.558A7.349,7.349,0,0,0,59.869-326.537Zm-2.2-14.8c-12.557-2.021-50.674.661-54.995,6.656-3.7,5.127-3.194,13.912-.684,22.3a62.164,62.164,0,0,0,2.847,8.192c5.977,12.242,3.151-3.689,41.967-5.736,41.661-2.2,37.779,5.3,41.524-15.043C90.6-337.329,63.93-340.334,57.664-341.342ZM15.05-313.174a2.056,2.056,0,0,1-.627,1.509,2.059,2.059,0,0,1-1.511.629,2,2,0,0,1-1.492-.629,2.078,2.078,0,0,1-.611-1.509v-16.049a2.083,2.083,0,0,1,.611-1.511,2,2,0,0,1,1.492-.627,2.066,2.066,0,0,1,1.511.627,2.061,2.061,0,0,1,.627,1.511Zm26.48.455a2.043,2.043,0,0,1-1.5.615H22.055a2.044,2.044,0,0,1-1.5-.615,2.042,2.042,0,0,1-.613-1.5,2.228,2.228,0,0,1,.374-1.231l.207-.2L34.732-329.9H22.944a2.012,2.012,0,0,1-1.486-.6,2.011,2.011,0,0,1-.6-1.486,2.075,2.075,0,0,1,.6-1.5,1.989,1.989,0,0,1,1.486-.613H39.888a2,2,0,0,1,1.488.613,2.083,2.083,0,0,1,.6,1.5,2.232,2.232,0,0,1-.377,1.231c-.046.046-.1.1-.154.17s-.119.138-.186.207L35-324.129v-.034l-7.859,7.857H40.026a2.082,2.082,0,0,1,1.5.6,2,2,0,0,1,.613,1.488A2.041,2.041,0,0,1,41.53-312.72Zm22.894-9.3a2.236,2.236,0,0,1-1.49.714l-15.189.661a5.3,5.3,0,0,0,.411.836c.044.078.083.149.113.2a6.951,6.951,0,0,0,1.477,1.715,6.508,6.508,0,0,0,1.965,1.146,7.26,7.26,0,0,0,2.514.439l.138-.007a2.021,2.021,0,0,1,1.511.533,2.025,2.025,0,0,1,.661,1.458A2.076,2.076,0,0,1,56-312.793a1.985,1.985,0,0,1-1.458.677c-.136.007-.269.014-.393.018a1.863,1.863,0,0,1-.361-.018,10.775,10.775,0,0,1-2.824-.459,11.73,11.73,0,0,1-2.6-1.134,10.934,10.934,0,0,1-2.211-1.733,10.491,10.491,0,0,1-1.708-2.287,10.99,10.99,0,0,1-1.378-5.359,10.733,10.733,0,0,1,1.391-5.345c.085-.14.177-.285.273-.439s.2-.3.305-.441a10.405,10.405,0,0,1,2.95-2.916,11.6,11.6,0,0,1,3.793-1.619,11.167,11.167,0,0,1,5.207.186,10.431,10.431,0,0,1,4.521,2.539A11.318,11.318,0,0,1,64-327.743a10.268,10.268,0,0,1,1.015,4.059l0,.067,0,.069A2.143,2.143,0,0,1,64.424-322.017Zm22.235-5.492a2.218,2.218,0,0,1-.909,1.38l-12.683,8.385a5.514,5.514,0,0,0,.785.505l.2.115a.142.142,0,0,0,.032.016l.011.007a7.018,7.018,0,0,0,2.106.687,6.526,6.526,0,0,0,2.275-.03,7.254,7.254,0,0,0,2.381-.918l.115-.076a2.019,2.019,0,0,1,1.568-.321,2.012,2.012,0,0,1,1.318.909,2.076,2.076,0,0,1,.331,1.584,1.992,1.992,0,0,1-.9,1.334c-.115.073-.223.147-.328.216a1.773,1.773,0,0,1-.317.17,10.764,10.764,0,0,1-2.659,1.061,11.769,11.769,0,0,1-2.811.363,10.875,10.875,0,0,1-2.79-.347,10.44,10.44,0,0,1-2.638-1.081,11,11,0,0,1-3.942-3.885,10.7,10.7,0,0,1-1.557-5.3q0-.245.007-.517c0-.179.016-.358.034-.535a10.393,10.393,0,0,1,1.031-4.018,11.574,11.574,0,0,1,2.418-3.341,11.179,11.179,0,0,1,4.56-2.521,10.434,10.434,0,0,1,5.182-.152,11.391,11.391,0,0,1,3.876,1.616,10.284,10.284,0,0,1,2.958,2.957l.039.057.037.057A2.133,2.133,0,0,1,86.659-327.509Zm-8.86-2.312a6.961,6.961,0,0,0-2.753.326,6.305,6.305,0,0,0-2.365,1.378,6.876,6.876,0,0,0-1.63,2.246,6.914,6.914,0,0,0-.549,2.266,7.123,7.123,0,0,0,.211,2.3l10.716-7.083a7.145,7.145,0,0,0-1-.647A6.487,6.487,0,0,0,77.8-329.821ZM58.018-328.56A6.96,6.96,0,0,0,55.49-329.7a6.32,6.32,0,0,0-2.737-.034,6.85,6.85,0,0,0-2.553,1.086,6.856,6.856,0,0,0-1.637,1.66,7.208,7.208,0,0,0-1,2.078l12.832-.558a7.349,7.349,0,0,0-.524-1.07A6.488,6.488,0,0,0,58.018-328.56Z" transform="translate(0 350.946)"/><g transform="translate(89.735 16.839)"><path class="a" d="M403.876-287.709a1.978,1.978,0,0,1-.6,1.452,2.244,2.244,0,0,1-1.452.666h-.307a10.725,10.725,0,0,1-4.168-.957,11.118,11.118,0,0,1-3.393-2.375,11.29,11.29,0,0,1-2.289-3.451,10.575,10.575,0,0,1-.843-4.219v-8.883a2.037,2.037,0,0,1,.62-1.5,2.071,2.071,0,0,1,1.516-.615,2.126,2.126,0,0,1,1.532.615,2.008,2.008,0,0,1,.637,1.5l-.034,8.883a6.434,6.434,0,0,0,.513,2.562,6.929,6.929,0,0,0,1.384,2.1,7.02,7.02,0,0,0,2.05,1.469,6.116,6.116,0,0,0,2.511.6h.171a2.075,2.075,0,0,1,1.52.632A2.075,2.075,0,0,1,403.876-287.709Z" transform="translate(-390.825 307.593)"/><path class="a" d="M460.794-307.223a10.791,10.791,0,0,1,5.176.376,10.726,10.726,0,0,1,4.424,2.733,10.829,10.829,0,0,1,2.374,3.57,10.547,10.547,0,0,1,.8,4.219,10.482,10.482,0,0,1-.564,3.4,11.316,11.316,0,0,1-1.589,3.058,10.831,10.831,0,0,1-4.236,3.433,10.955,10.955,0,0,1-5.33,1.008,10.746,10.746,0,0,1-2.8-.581,11.263,11.263,0,0,1-2.545-1.264,11.335,11.335,0,0,1-2.135-1.845,10.478,10.478,0,0,1-1.606-2.357,11.4,11.4,0,0,1-.905-2.631,10.62,10.62,0,0,1-.222-2.75,11.819,11.819,0,0,1,.461-2.733,10.01,10.01,0,0,1,1.145-2.545,6.537,6.537,0,0,1,.581-.888h.034a10.2,10.2,0,0,1,3.075-2.767A11.83,11.83,0,0,1,460.794-307.223Zm7.38,14.657a6.86,6.86,0,0,0,1.008-2.289,6.817,6.817,0,0,0,.12-2.494,6.569,6.569,0,0,0-.752-2.22,7.245,7.245,0,0,0-1.776-2.118,6.272,6.272,0,0,0-2.46-1.23,6.5,6.5,0,0,0-2.733-.171,6.635,6.635,0,0,0-2.6.957,6.823,6.823,0,0,0-2.392,2.631,6.617,6.617,0,0,0-.752,3.485,6.273,6.273,0,0,0,.718,2.665q.17.308.325.632a4.957,4.957,0,0,0,.359.632q-.308-.513-.581-1.059a6.708,6.708,0,0,0,1.4,1.759,7.366,7.366,0,0,0,1.913,1.247,6.327,6.327,0,0,0,2.289.529,6.409,6.409,0,0,0,2.323-.324,6.726,6.726,0,0,0,2.015-1.025A7,7,0,0,0,468.173-292.566Z" transform="translate(-437.665 307.428)"/><path class="a" d="M573.26-301.059a.139.139,0,0,1,.019.106,3.019,3.019,0,0,1,.166.376q.084.227.188.559a10.706,10.706,0,0,1,.556,3.764,11.062,11.062,0,0,1-.74,3.673,11.236,11.236,0,0,1-1.948,3.242,10.648,10.648,0,0,1-3.038,2.456,10.527,10.527,0,0,1-4.151,1.273,11.331,11.331,0,0,1-4.2-.395,11.152,11.152,0,0,1-3.762-1.937,10.574,10.574,0,0,1-2.817-3.328,10.576,10.576,0,0,1-1.275-4.17,11.163,11.163,0,0,1,.407-4.211,11.329,11.329,0,0,1,1.939-3.743,10.525,10.525,0,0,1,3.317-2.8,10.42,10.42,0,0,1,3.018-1.1,12.111,12.111,0,0,1,3.081-.2l.444.03a2.051,2.051,0,0,1,1.463.719,2.062,2.062,0,0,1,.514,1.549,2.113,2.113,0,0,1-.711,1.478,2.006,2.006,0,0,1-1.541.529l-.982-.087a7.584,7.584,0,0,0-1.636.211,6.507,6.507,0,0,0-1.606.623,6.46,6.46,0,0,0-2.041,1.717,7.056,7.056,0,0,0-1.187,2.283,6.631,6.631,0,0,0-.252,2.57,6.572,6.572,0,0,0,.8,2.563,6.572,6.572,0,0,0,1.725,2.055,6.628,6.628,0,0,0,2.3,1.179,7.032,7.032,0,0,0,2.562.236,6.448,6.448,0,0,0,2.548-.787,6.644,6.644,0,0,0,1.674-1.283,6.734,6.734,0,0,0,1.156-1.662,6.6,6.6,0,0,0,.6-1.9,7.22,7.22,0,0,0,.027-2.019l-2.579,1.408a2.015,2.015,0,0,1-1.622.165,2.1,2.1,0,0,1-1.268-1.04,2.044,2.044,0,0,1-.18-1.614,2.045,2.045,0,0,1,1.025-1.26l4.649-2.537a2.383,2.383,0,0,1,1.839-.089,2.485,2.485,0,0,1,1.411,1.2l.1.18Z" transform="translate(-515.159 307.54)"/><path class="a" d="M665.092-307.223a10.791,10.791,0,0,1,5.176.376,10.726,10.726,0,0,1,4.424,2.733,10.828,10.828,0,0,1,2.374,3.57,10.547,10.547,0,0,1,.8,4.219,10.482,10.482,0,0,1-.564,3.4,11.316,11.316,0,0,1-1.589,3.058,10.831,10.831,0,0,1-4.236,3.433,10.955,10.955,0,0,1-5.33,1.008,10.746,10.746,0,0,1-2.8-.581,11.262,11.262,0,0,1-2.545-1.264,11.332,11.332,0,0,1-2.135-1.845,10.474,10.474,0,0,1-1.606-2.357,11.4,11.4,0,0,1-.905-2.631,10.627,10.627,0,0,1-.222-2.75,11.824,11.824,0,0,1,.461-2.733,10.011,10.011,0,0,1,1.145-2.545,6.561,6.561,0,0,1,.581-.888h.034a10.2,10.2,0,0,1,3.075-2.767A11.827,11.827,0,0,1,665.092-307.223Zm7.379,14.657a6.859,6.859,0,0,0,1.008-2.289,6.812,6.812,0,0,0,.119-2.494,6.564,6.564,0,0,0-.751-2.22,7.243,7.243,0,0,0-1.777-2.118,6.273,6.273,0,0,0-2.46-1.23,6.5,6.5,0,0,0-2.733-.171,6.635,6.635,0,0,0-2.6.957,6.821,6.821,0,0,0-2.392,2.631,6.615,6.615,0,0,0-.752,3.485,6.273,6.273,0,0,0,.717,2.665q.17.308.325.632a4.928,4.928,0,0,0,.359.632q-.308-.513-.581-1.059a6.7,6.7,0,0,0,1.4,1.759,7.366,7.366,0,0,0,1.913,1.247,6.327,6.327,0,0,0,2.289.529,6.407,6.407,0,0,0,2.323-.324,6.726,6.726,0,0,0,2.016-1.025A7,7,0,0,0,672.471-292.566Z" transform="translate(-595.055 307.428)"/></g><path class="a" d="M37.859-369.961A5.2,5.2,0,0,1,34-371.571a5.336,5.336,0,0,1-1.58-3.876A5.335,5.335,0,0,1,34-379.322a5.2,5.2,0,0,1,3.863-1.612,5.348,5.348,0,0,1,3.906,1.612,5.263,5.263,0,0,1,1.624,3.875,5.265,5.265,0,0,1-1.624,3.876A5.348,5.348,0,0,1,37.859-369.961Z" transform="translate(-24.973 380.934)"/></g><path class="b" d="M62.3-163.446c1.484-.466,2.982-.891,4.482-1.309s3.01-.8,4.522-1.171c3.022-.754,6.062-1.432,9.109-2.08s6.11-1.22,9.173-1.787c1.533-.276,3.069-.535,4.606-.794l4.616-.733c6.158-.961,12.347-1.71,18.544-2.372,1.548-.179,3.1-.312,4.652-.454s3.1-.287,4.657-.4l4.661-.362,4.664-.31c12.444-.707,24.916-.976,37.373-.627,12.455.326,24.9,1.151,37.256,2.615-12.432-.607-24.856-.981-37.278-1-.776,0-1.552-.012-2.329,0l-2.329.024-4.657.029-4.656.089-2.327.046-2.327.076c-6.206.148-12.407.448-18.6.816-6.2.342-12.385.844-18.566,1.408-1.545.148-3.091.276-4.635.44l-4.63.486-4.625.533-4.622.562c-6.158.791-12.3,1.679-18.43,2.715-1.534.246-3.062.522-4.593.788l-4.581.856c-1.527.29-3.05.6-4.571.917S63.81-163.813,62.3-163.446Z" transform="translate(-47.994 -157.881)"/></g></svg>