<svg xmlns="http://www.w3.org/2000/svg" width="18" height="18" viewBox="0 0 18 18">
  <path id="Path_181" data-name="Path 181" d="M40.615,24H25.385A1.385,1.385,0,0,0,24,25.385V40.615A1.385,1.385,0,0,0,25.385,42H40.615A1.385,1.385,0,0,0,42,40.615V25.385A1.385,1.385,0,0,0,40.615,24Zm0,16.615H25.385V25.385H40.615Zm-10.385-9v5.538a.692.692,0,1,1-1.385,0V31.615a.692.692,0,0,1,1.385,0Zm7.615,2.423v3.115a.692.692,0,1,1-1.385,0V34.038a1.731,1.731,0,1,0-3.462,0v3.115a.692.692,0,1,1-1.385,0V31.615a.692.692,0,0,1,1.366-.154,3.115,3.115,0,0,1,4.864,2.577Zm-7.269-4.846a1.038,1.038,0,1,1-1.038-1.038A1.038,1.038,0,0,1,30.577,29.192Z" transform="translate(-24 -24)" fill="#fff"/>
</svg>
