<svg xmlns="http://www.w3.org/2000/svg" width="145" height="14.24" viewBox="0 0 145 14.24">
  <g id="Group_16" data-name="Group 16" transform="translate(-126.5 -39.88)">
    <path id="Path_185" data-name="Path 185" d="M11.88-12.72V-14H2.28V0H3.76V-5.94H11V-7.22H3.76v-5.5ZM15.78.1A1.093,1.093,0,0,0,16.86-1a1.075,1.075,0,0,0-1.08-1.08A1.059,1.059,0,0,0,14.72-1,1.076,1.076,0,0,0,15.78.1ZM31.62-14v6.24H22.86V-14H21.38V0h1.48V-6.46h8.76V0h1.46V-14ZM49.3,0h1.56l-6.4-14H43L36.6,0h1.54l1.68-3.74h7.8ZM40.36-4.94l3.36-7.52,3.36,7.52ZM56.4,0h1.48V-12.72H62.8V-14H51.48v1.28H56.4ZM76.6-14v6.24H67.84V-14H66.36V0h1.48V-6.46H76.6V0h1.46V-14ZM89.94.12A7.04,7.04,0,0,0,97.28-7a7.04,7.04,0,0,0-7.34-7.12A7.046,7.046,0,0,0,82.58-7,7.046,7.046,0,0,0,89.94.12Zm0-1.32A5.693,5.693,0,0,1,84.04-7a5.693,5.693,0,0,1,5.9-5.8A5.671,5.671,0,0,1,95.8-7,5.671,5.671,0,0,1,89.94-1.2ZM107.44.12c3.58,0,5.74-2.08,5.74-6.1V-14h-1.44v7.96c0,3.32-1.56,4.84-4.3,4.84-2.72,0-4.28-1.52-4.28-4.84V-14h-1.48v8.02C101.68-1.96,103.86.12,107.44.12ZM121.28,0h1.48V-12.72h4.92V-14H116.36v1.28h4.92Z" transform="translate(135 54)" fill="#ffffff"/>
    <path id="Polygon_1" data-name="Polygon 1" d="M3.5,0,7,6H0Z" transform="translate(132.5 43.5) rotate(90)" fill="#ffffff"/>
    <path id="Polygon_3" data-name="Polygon 3" d="M3.5,0,7,6H0Z" transform="translate(265.5 50.5) rotate(-90)" fill="#ffffff"/>
  </g>
</svg>