<svg xmlns="http://www.w3.org/2000/svg" width="20" height="20" viewBox="0 0 20 20">
  <g id="Group_7" data-name="Group 7" transform="translate(-679.47 -1296.028)">
    <path id="Path_178" data-name="Path 178" d="M52,39.5a.833.833,0,1,1-1.667,0V34.846l-6.909,6.91a.834.834,0,1,1-1.179-1.179l6.909-6.91H44.5A.833.833,0,0,1,44.5,32h6.667a.833.833,0,0,1,.833.833ZM47.833,42a.833.833,0,0,0-.833.833v7.5H33.667V37h7.5a.833.833,0,1,0,0-1.667h-7.5A1.667,1.667,0,0,0,32,37V50.333A1.667,1.667,0,0,0,33.667,52H47a1.667,1.667,0,0,0,1.667-1.667v-7.5A.833.833,0,0,0,47.833,42Z" transform="translate(647.47 1264.028)" fill="#161817"/>
  </g>
</svg>
