<?xml version="1.0" encoding="UTF-8"?><svg id="Calque_2" xmlns="http://www.w3.org/2000/svg" xmlns:xlink="http://www.w3.org/1999/xlink" viewBox="0 0 210.85 47.2632"><defs><linearGradient id="Dégradé_sans_nom_2" x1="23.4129" y1="46.3013" x2="54.1079" y2="46.3013" gradientUnits="userSpaceOnUse"><stop offset="0" stop-color="#ff681f"/><stop offset="1" stop-color="#d3241f"/></linearGradient><linearGradient id="Dégradé_sans_nom_2-2" x1="6.48" y1="39.3204" x2="41.3362" y2="39.3204" xlink:href="#Dégradé_sans_nom_2"/><linearGradient id="Dégradé_sans_nom_2-3" x1="18.4465" y1="32.3394" x2="55.3299" y2="32.3394" xlink:href="#Dégradé_sans_nom_2"/><linearGradient id="Dégradé_sans_nom_2-4" x1="71.7132" y1="13.3057" x2="210.85" y2="13.3057" xlink:href="#Dégradé_sans_nom_2"/></defs><g id="Components"><g id="dbda73c6-364b-4678-874b-9fb39451f755_1"><path d="M9.8472,26.6117h-2.9619c-.1133,0-.2207-.0479-.2969-.1309s-.1143-.1943-.1045-.3066l1.9385-22.165H.4029c-.1123,0-.2207-.0479-.2969-.1309S-.0083,3.683.0015,3.5717L.2818.3685C.3003.1586.4722.0004.6831.0004h20.4473c.1123,0,.2207.0479.2959.1299.0762.083.1143.1953.1045.3076l-.2803,3.2031c-.0186.21-.1904.3682-.4004.3682h-8.0957l-1.8965,21.6768c-.0459.5273-.4805.9258-1.0107.9258Z" style="fill:#f9f9f9;"/><path d="M36.9244,26.6117h-3.2441l-1.4492-5.8398h-9.2305l-2.3506,5.5928c-.0615.1494-.208.2471-.3711.2471h-3.7236c-.1367,0-.2617-.0684-.3369-.1816-.0742-.1143-.0869-.2568-.0322-.3818L27.5308.2406c.0635-.1455.208-.2402.3682-.2402h2.9912c.1807,0,.3408.1221.3896.2959l6.624,25.043c.082.3057.0176.625-.1748.877-.1943.251-.4873.3955-.8047.3955ZM31.3521,16.8851v.001-.001ZM24.6226,16.765h6.7012l-2.4756-10.3584-4.2256,10.3584Z" style="fill:#f9f9f9;"/><path d="M57.7007,26.6117h-2.9941c-.1543,0-.2969-.0889-.3633-.2275l-4.4482-9.2363-6.1104,9.2832c-.0752.1133-.2012.1807-.3369.1807h-3.9492c-.1484,0-.2852-.0811-.3555-.2129-.0703-.1309-.0625-.2891.0195-.4131l8.667-13.0215L41.8628.5775c-.0605-.126-.0518-.2705.0225-.3887S42.0865.0004,42.2261.0004h3.9951c.1543,0,.2979.0908.3633.2314l4.0215,8.5596L56.1548.184c.0762-.1152.2021-.1836.3379-.1836h3.9473c.1494,0,.2852.082.3555.2139s.0625.29-.0215.4141l-8.3398,12.373,6.1699,12.1367c.1611.3164.1465.6865-.0391.9893-.1855.3037-.5088.4844-.8643.4844Z" style="fill:#f9f9f9;"/><path d="M65.9507,26.6117h-3.4023L64.8443.3685c.0186-.21.1904-.3682.4014-.3682h3.5225c.1133,0,.2207.0479.2969.1309s.1143.1943.1045.3066l-2.209,25.248c-.0449.5195-.4883.9258-1.0098.9258Z" style="fill:#f9f9f9;"/><path d="M24.4626,45.3395h28.7639c.5313,0,.9242.4305.8777.9618s-.5147.9618-1.046.9618h-28.7639c-.5313,0-.9242-.4305-.8777-.9618s.5147-.9618,1.046-.9618Z" style="fill:url(#Dégradé_sans_nom_2);"/><path d="M7.4899,38.3586h33.0048c.5092,0,.8841.4305.8377.9618s-.4967.9618-1.0059.9618H7.3216c-.5092,0-.8841-.4305-.8377-.9618s.4967-.9618,1.0059-.9618Z" style="fill:url(#Dégradé_sans_nom_2-2);"/><path d="M19.3876,31.3776h35.1695c.4711,0,.8151.4305.7686.9618s-.4658.9618-.9369.9618H19.2193c-.4711,0-.8151-.4305-.7686-.9618s.4658-.9618.9369-.9618Z" style="fill:url(#Dégradé_sans_nom_2-3);"/><path d="M89.5053,14.6369h-3.6197c-.2725,0-.4976.2052-.5215.478l-.3682,4.2117c-.0127.149.0352.291.1348.4006.1011.1097.2393.1701.3867.1701h3.4864c.9668-.0169,1.7051-.2868,2.187-.8027.4922-.5173.772-1.1401.8355-1.85.063-.731-.0986-1.3355-.4981-1.8514-.3823-.4836-1.0654-.7394-2.023-.7563M127.1874,8.4768l-2.9746,7.296h4.7193l-1.7447-7.296M154.4285,8.4065l-3.003,7.3663h4.7208l-1.7178-7.3663M89.9384,6.5579h-3.3457c-.2725,0-.4976.2053-.5215.478l-.3457,3.9502c-.0127.1462.0352.2896.1362.3978.1001.1111.2378.1715.3853.1715h3.2134c.9507,0,1.6758-.2544,2.1568-.7549.5029-.478.7744-1.0557.8364-1.7741.0615-.7099-.104-1.2933-.5088-1.7811-.3838-.4386-1.0601-.672-2.0064-.6874M82.4696,23.1376c-.2881,0-.5664-.1223-.7617-.3346-.1953-.2137-.2925-.5005-.2671-.7886l1.5391-17.5975c.0479-.537.4907-.9433,1.0293-.9433h6.4762c1.8906.0197,3.2955.5244,4.1768,1.5042.8867.9868,1.2666,2.3026,1.126,3.9094-.0537.8224-.3164,1.6223-.7817,2.3716-.2432.3697-.5737.7169-.9839,1.0389-.2856.2362-.6201.4597-.9942.6663.79.3261,1.3877.8575,1.7842,1.5871.4341.8983.6045,1.8753.5142,2.9156-.1685,1.715-.8164,3.0927-1.9297,4.0936-1.1026,1.0445-2.4351,1.5773-3.9576,1.5773h-6.9698M104.2364,11.6187l4.3653-7.9328c.0703-.1307.2095-.2123.3584-.2123h2.6148c.146,0,.2837.0787.3569.2067.0732.1265.0732.284-.0015.4105l-6.4088,10.9889-.6231,7.1146c-.0449.537-.4878.9433-1.0288.9433h-2.2154l.7085-8.0945-4.4859-11.003c-.0522-.1265-.0381-.2713.0381-.3838.0771-.1139.2051-.1828.3413-.1828h2.6387c.1699,0,.3247.1068.3838.2657l2.9576,7.8794M118.2566,23.1376c-.1392,0-.2671-.0703-.3433-.1856-.0771-.1167-.0898-.2629-.0337-.3908l8.2828-18.8416c.0659-.149.2139-.246.3755-.246h2.1324c.1855,0,.3486.1251.3965.3051l4.7784,18.0614c.084.3121.0181.6382-.1802.8941-.1968.2558-.4946.4034-.8179.4034h-2.1524l-1.063-4.2834h-6.6676l-1.6939,4.0318c-.0645.1518-.2124.2517-.3794.2517h-2.6343M134.0249,6.5579c-.1138,0-.2236-.0492-.3022-.1335-.0771-.0844-.1167-.1982-.1069-.3135l.1982-2.2619c.0186-.2137.1943-.3753.4092-.3753h14.0607c.1138,0,.2246.0492.3022.1335.0771.0844.1167.1996.1069.3135l-.1982,2.2619c-.0186.2137-.1943.3753-.4092.3753h-5.4083l-1.3677,15.6364c-.0464.537-.4893.9433-1.0288.9433h-2.3731l1.4492-16.5797h-5.3321M144.8395,23.1376l8.6427-19.664h2.7159l4.8585,18.3664c.083.3121.0186.6382-.1797.8941-.1968.2558-.4951.4034-.8184.4034h-2.1524l-1.0625-4.2834h-6.6676l-1.7993,4.2834h-3.5372M196.18,23.1376l1.687-19.2886c.0181-.2137.1939-.3753.4087-.3753h2.4966c.1152,0,.2251.0492.3022.1335.0688.0735.1064.1705.1084.2695v.0079c0,.012-.0005.024-.0015.036l-1.5982,18.2736c-.0479.537-.4893.9433-1.0293.9433h-2.3741M171.3496,3.3176h0c2.293.0506,4.2667.7015,5.8736,1.9329.1782.1392.2134.3964.0801.5764l-1.2329,1.6574c-.207.2771-.5308.4284-.853.4284-.1748,0-.3491-.0444-.5034-.1373-1.1221-.6748-2.3902-1.0304-3.7691-1.06-.8013,0-1.4986.2095-2.0679.6214-.5889.4245-.918,1.0459-1.0078,1.8978-.041.4836.0996.9123.4341,1.3088.3374.4091.9321.6973,1.7686.8603.4937.0858,1.1641.1856,2.0454.2994,1.7852.2558,3.0845.9419,3.8619,2.0384.7661,1.0712,1.0923,2.3308.9683,3.7464-.4287,3.8012-2.8677,5.7539-7.2481,5.8073-2.7452,0-5.0704-.8645-6.9137-2.5712-.1685-.1574-.1782-.4203-.021-.589l1.4253-1.5295c.2056-.2204.4815-.3341.7578-.3341.2114,0,.4233.0667.603.2034,1.2202.9278,2.7119,1.4072,4.4327,1.4227,2.2803-.0338,3.4737-.8322,3.6465-2.4418.1294-1.3003-.5005-2.0313-1.9849-2.2984-.7285-.104-1.5381-.2221-2.418-.3557-1.6333-.2812-2.8565-.9278-3.6426-1.9203-.8096-1.0206-1.1553-2.2759-1.0288-3.7309.1519-1.7333.8433-3.1531,2.0552-4.2187,1.1724-1.0529,2.7666-1.597,4.7388-1.6139M187.4572,3.3176h0c2.294.0506,4.2676.7015,5.8731,1.9329.1787.1378.2153.3964.0801.5778l-1.2315,1.6546c-.207.2781-.5303.4297-.8525.4297-.1748,0-.3486-.0444-.5039-.1373-1.1231-.6748-2.3897-1.0304-3.7706-1.06-.7998,0-1.4986.2095-2.0679.6214-.5874.4245-.9165,1.0459-1.0064,1.8978-.042.4822.0986.9123.4331,1.3088.3374.4091.9321.6973,1.77.8603.4888.0858,1.1597.1842,2.0449.2994,1.7842.2558,3.083.9419,3.8619,2.0384.7661,1.0712,1.0923,2.3322.9688,3.7464-.4302,3.8012-2.8692,5.7539-7.2496,5.8073-2.7442,0-5.0694-.8645-6.9122-2.5712-.1689-.1574-.1787-.4203-.0225-.589l1.4268-1.5295c.2046-.2204.4805-.3341.7568-.3341.2114,0,.4233.0667.6025.2034,1.2217.9278,2.7129,1.4072,4.4337,1.4227,2.2803-.0338,3.4737-.8322,3.6465-2.4418.1294-1.3003-.502-2.0313-1.9849-2.2984-.728-.104-1.5381-.2221-2.418-.3557-1.6333-.2812-2.8579-.9278-3.6421-1.9203-.8086-1.0206-1.1558-2.2759-1.0293-3.7309.1519-1.7333.8438-3.1531,2.0542-4.2187,1.1724-1.0529,2.7676-1.597,4.7388-1.6139M207.9956,0H76.8958c-1.7207,0-3.2373,1.3945-3.3877,3.1152l-1.7827,20.3823c-.1504,1.7193,1.1216,3.1138,2.8423,3.1138h131.0998c1.7193,0,3.2373-1.3945,3.3877-3.1138l1.7827-20.3823c.1504-1.7207-1.1216-3.1152-2.8423-3.1152" style="fill:url(#Dégradé_sans_nom_2-4);"/></g></g></svg>