<svg xmlns="http://www.w3.org/2000/svg" width="20" height="20.005" viewBox="0 0 20 20.005">
  <path id="Path_184" data-name="Path 184" d="M27.579,24.415a1.429,1.429,0,0,0-1.4-.364h-.013l-17.141,5.2a1.429,1.429,0,0,0-.216,2.665l7.646,3.621,3.621,7.646A1.416,1.416,0,0,0,21.365,44q.062,0,.123-.005a1.418,1.418,0,0,0,1.25-1.028l5.2-17.141v-.013A1.429,1.429,0,0,0,27.579,24.415ZM21.373,42.559l0,.013-3.515-7.42,4.219-4.22a.714.714,0,0,0-1.01-1.01l-4.22,4.219L9.421,30.626h.013l17.134-5.2Z" transform="translate(-7.992 -23.997)" fill="#ffffff"/>
</svg>