<svg id="Artboard_2" data-name="Artboard 2" xmlns="http://www.w3.org/2000/svg" width="96.354" height="25.275" viewBox="0 0 96.354 25.275">
  <path id="Path_137" data-name="Path 137" d="M103.959,110.817v10.241a2.294,2.294,0,0,1-1.111,1.966h0l-8.711,5.24h0a2.288,2.288,0,0,1-2.363,0h0l-8.658-5.2h0A2.292,2.292,0,0,1,82,121.095V110.839a2.292,2.292,0,0,1,1.117-1.963h0l8.7-5.231h0a2.3,2.3,0,0,1,2.364,0h0l8.665,5.208h0A2.3,2.3,0,0,1,103.959,110.817Z" transform="translate(-82 -103.317)" fill="#031e32"/>
  <path id="Path_138" data-name="Path 138" d="M209.622,147.079v9.7a.467.467,0,0,1-.227.4l-4.13,2.477a.468.468,0,0,1-.715-.4V144.6a.468.468,0,0,1,.715-.4l4.13,2.477A.467.467,0,0,1,209.622,147.079Z" transform="translate(-189.956 -139.27)" fill="#fff"/>
  <path id="Path_139" data-name="Path 139" d="M106.367,144.629v14.658a.468.468,0,0,1-.709.4l-4.131-2.477a.469.469,0,0,1-.227-.4v-9.7a.469.469,0,0,1,.227-.4l4.131-2.477a.468.468,0,0,1,.709.4Z" transform="translate(-99.002 -139.297)" fill="#fff"/>
  <path id="Path_140" data-name="Path 140" d="M160.746,198.721v9.605a.562.562,0,0,1-.273.482l-1.45.869h0a.559.559,0,0,1-.578,0h0l-1.533-.918a.563.563,0,0,1-.273-.482v-9.557a.561.561,0,0,1,.561-.561h2.983a.561.561,0,0,1,.562.561Z" transform="translate(-147.751 -186.866)" fill="#fff"/>
  <circle id="Ellipse_21" data-name="Ellipse 21" cx="2.053" cy="2.053" r="2.053" transform="translate(8.889 5.289)" fill="#ff8200"/>
  <path id="Path_141" data-name="Path 141" d="M322.607,171.213l-2.609,9.8a.1.1,0,0,1-.1.073h-3.18a.1.1,0,0,1-.094-.074l-1.441-6.026a.1.1,0,0,0-.188,0l-1.49,6.025a.1.1,0,0,1-.1.075h-3.162a.1.1,0,0,1-.1-.073l-2.626-9.8a.1.1,0,0,1,.093-.119h2.808a.1.1,0,0,1,.1.079l1.377,7.07h0l1.635-7.078a.1.1,0,0,1,.094-.075h3.038a.1.1,0,0,1,.093.074l1.658,7.039,1.36-7.033a.1.1,0,0,1,.1-.08h2.631a.1.1,0,0,1,.1.124Z" transform="translate(-280.673 -163.018)" fill="#FFFFFF"/>
  <path id="Path_142" data-name="Path 142" d="M448.732,176.8H442a2,2,0,0,0,.6,1.385,1.813,1.813,0,0,0,1.278.476,1.585,1.585,0,0,0,1.542-.886.1.1,0,0,1,.086-.055h3.016a.1.1,0,0,1,.094.119,4.337,4.337,0,0,1-.857,1.6,4.436,4.436,0,0,1-1.606,1.208,5.233,5.233,0,0,1-2.174.431,5.333,5.333,0,0,1-2.573-.61,4.367,4.367,0,0,1-1.762-1.741,5.3,5.3,0,0,1-.635-2.644,5.379,5.379,0,0,1,.626-2.647,4.3,4.3,0,0,1,1.755-1.741,5.774,5.774,0,0,1,5.129-.018,4.3,4.3,0,0,1,1.736,1.69,5.083,5.083,0,0,1,.625,2.56,7.468,7.468,0,0,1-.043.784A.1.1,0,0,1,448.732,176.8Zm-2.944-1.654a1.524,1.524,0,0,0-.529-1.219,1.964,1.964,0,0,0-1.322-.453,1.843,1.843,0,0,0-1.922,1.667Z" transform="translate(-396.487 -163.02)" fill="#FFFFFF"/>
  <path id="Path_143" data-name="Path 143" d="M532.668,180.478a4.491,4.491,0,0,1-1.816-1.741,5.159,5.159,0,0,1-.661-2.648,5.1,5.1,0,0,1,.67-2.638,4.511,4.511,0,0,1,1.833-1.751,5.885,5.885,0,0,1,5.217,0,4.525,4.525,0,0,1,1.834,1.751,5.111,5.111,0,0,1,.663,2.638,5.059,5.059,0,0,1-.679,2.639,4.564,4.564,0,0,1-1.851,1.751,5.6,5.6,0,0,1-2.62.61A5.483,5.483,0,0,1,532.668,180.478Zm4.072-2.595a2.974,2.974,0,0,0,.013-3.588,2.024,2.024,0,0,0-2.918-.008,3.091,3.091,0,0,0-.008,3.6,1.86,1.86,0,0,0,1.436.626,1.975,1.975,0,0,0,1.474-.626Z" transform="translate(-476.817 -163.019)" fill="#FFFFFF"/>
  <path id="Path_144" data-name="Path 144" d="M633.072,171.5a4.465,4.465,0,0,1,1.031,3.119v5.73a.1.1,0,0,1-.1.1h-2.8a.1.1,0,0,1-.1-.1v-5.32a2.208,2.208,0,0,0-.512-1.555,1.984,1.984,0,0,0-2.75,0,2.209,2.209,0,0,0-.511,1.555v5.32a.1.1,0,0,1-.1.1h-2.82a.1.1,0,0,1-.1-.1v-9.78a.1.1,0,0,1,.1-.1h2.82a.1.1,0,0,1,.1.1V171.8a3.2,3.2,0,0,1,1.235-1.046,3.881,3.881,0,0,1,1.746-.385A3.539,3.539,0,0,1,633.072,171.5Z" transform="translate(-559.738 -162.382)" fill="#FFFFFF"/>
  <path id="Path_145" data-name="Path 145" d="M724.49,176.8h-6.734a2,2,0,0,0,.6,1.385,1.817,1.817,0,0,0,1.278.476,1.584,1.584,0,0,0,1.542-.886.1.1,0,0,1,.087-.055h3.021a.1.1,0,0,1,.093.119,4.317,4.317,0,0,1-.856,1.6,4.445,4.445,0,0,1-1.612,1.2,5.233,5.233,0,0,1-2.173.437,5.329,5.329,0,0,1-2.573-.61,4.358,4.358,0,0,1-1.762-1.741,5.875,5.875,0,0,1-.011-5.291,4.3,4.3,0,0,1,1.754-1.741,5.37,5.37,0,0,1,2.591-.61,5.315,5.315,0,0,1,2.538.6,4.287,4.287,0,0,1,1.736,1.69,5.083,5.083,0,0,1,.626,2.56,7.468,7.468,0,0,1-.043.784A.1.1,0,0,1,724.49,176.8Zm-2.945-1.654a1.524,1.524,0,0,0-.529-1.219,1.964,1.964,0,0,0-1.322-.453,1.841,1.841,0,0,0-1.921,1.672Z" transform="translate(-639.408 -163.012)" fill="#FFFFFF"/>
  <path id="Path_146" data-name="Path 146" d="M808.434,171.139v9.805a.1.1,0,0,1-.1.1h-2.821a.1.1,0,0,1-.1-.1v-9.805a.1.1,0,0,1,.1-.1h2.821A.1.1,0,0,1,808.434,171.139Z" transform="translate(-719.271 -162.975)" fill="#ff8200"/>
  <path id="Path_147" data-name="Path 147" d="M845.268,160.626v2.4a.1.1,0,0,1-.1.1H843.74a3.719,3.719,0,0,1-2.556-.815,3.391,3.391,0,0,1-.917-2.659v-3.974h-1.1a.1.1,0,0,1-.1-.1v-2.344a.1.1,0,0,1,.1-.1h1.1V150.8a.1.1,0,0,1,.1-.1h2.819a.1.1,0,0,1,.1.1v2.339h1.877a.1.1,0,0,1,.1.1v2.346a.1.1,0,0,1-.1.1h-1.883v4.01a.852.852,0,0,0,.212.645,1.016,1.016,0,0,0,.7.2h.979A.1.1,0,0,1,845.268,160.626Z" transform="translate(-748.914 -145.057)" fill="#ff8200"/>
  <circle id="Ellipse_22" data-name="Ellipse 22" cx="1.508" cy="1.508" r="1.508" transform="translate(86.148 3.86)" fill="#ff8200"/>
</svg>
